<svg width="16" height="20" viewBox="0 0 16 20" fill="none" xmlns="http://www.w3.org/2000/svg">
<path d="M13.4619 1.46249L11.4889 0.325542L9.51589 1.46249L7.54291 0.325542L5.5699 1.46245L3.03182 0V15.1557H0V17.1925C0 18.34 0.933524 19.2735 2.08101 19.2735H13.919C15.0664 19.2735 16 18.34 16 17.1925V0L13.4619 1.46249ZM2.08101 18.1434C1.55671 18.1434 1.13014 17.7169 1.13014 17.1925V16.2858H11.838V17.1925C11.838 17.5349 11.9211 17.8582 12.0682 18.1434H2.08101ZM13.9189 18.1434C13.3947 18.1434 12.9681 17.7169 12.9681 17.1925V15.1557H4.16195V1.95551L5.56986 2.76677L7.54287 1.62993L9.51589 2.76677L11.4889 1.62989L13.4619 2.76677L14.8699 1.95551V17.1925C14.8698 17.7169 14.4433 18.1434 13.9189 18.1434Z" fill="#2E2E2E"/>
<path d="M13.7396 5.10034H5.29224V6.23048H13.7396V5.10034Z" fill="#2E2E2E"/>
<path d="M13.7396 7.25549H5.29224V8.38563H13.7396V7.25549Z" fill="#2E2E2E"/>
<path d="M9.51596 9.41064H5.29224V10.5408H9.51596V9.41064Z" fill="#2E2E2E"/>
</svg>
