<svg width="18" height="15" viewBox="0 0 18 15" fill="none" xmlns="http://www.w3.org/2000/svg">
<path fill-rule="evenodd" clip-rule="evenodd" d="M1.12609 14.845C1.42326 14.9478 1.73826 15 2.06304 15C3.12348 15 4.06283 14.447 4.52783 14.1176C5.76196 14.6954 7.14674 14.9996 8.55044 14.9996C13.2652 14.9996 17.1013 11.6352 17.1013 7.5C17.1013 3.36457 13.2652 0 8.55044 0C3.83565 0 -0.000217364 3.36457 9.23818e-09 7.5C9.23818e-09 9.18761 0.653043 10.833 1.84261 12.152C1.8313 12.715 1.65761 13.4667 0.969348 14.1185L0.449348 14.6109L1.12609 14.845ZM5.21436 9.87004C4.95256 9.87004 4.74034 10.0823 4.74034 10.3441C4.74034 10.6058 4.95256 10.8181 5.21436 10.8181H7.58443C7.84622 10.8181 8.05844 10.6058 8.05844 10.3441C8.05844 10.0823 7.84622 9.87004 7.58443 9.87004H5.21436ZM4.74034 7.5C4.74034 7.23821 4.95256 7.02599 5.21436 7.02599H13.2726C13.5344 7.02599 13.7466 7.23821 13.7466 7.5C13.7466 7.76179 13.5344 7.97401 13.2726 7.97401H5.21436C4.95256 7.97401 4.74034 7.76179 4.74034 7.5ZM5.21436 4.1819C4.95256 4.1819 4.74034 4.39412 4.74034 4.65591C4.74034 4.91771 4.95256 5.12993 5.21436 5.12993H9.9545C10.2163 5.12993 10.4285 4.91771 10.4285 4.65591C10.4285 4.39412 10.2163 4.1819 9.9545 4.1819H5.21436Z" fill="#2E2E2E"/>
</svg>
