<svg width="14" height="14" viewBox="0 0 14 14" fill="none" xmlns="http://www.w3.org/2000/svg">
<path fill-rule="evenodd" clip-rule="evenodd" d="M10.8652 9.451L13.3712 11.957C13.7622 12.347 13.7622 12.98 13.3712 13.371C13.1762 13.566 12.9202 13.664 12.6642 13.664C12.4082 13.664 12.1522 13.566 11.9572 13.371L9.45124 10.865C8.47224 11.562 7.27824 11.976 5.98824 11.976C2.68724 11.976 0.000244141 9.29 0.000244141 5.988C0.000244141 2.686 2.68724 0 5.98824 0C9.29024 0 11.9772 2.686 11.9772 5.988C11.9772 7.278 11.5622 8.471 10.8652 9.451ZM5.98824 2C3.78924 2 2.00024 3.789 2.00024 5.988C2.00024 8.187 3.78924 9.976 5.98824 9.976C8.18724 9.976 9.97724 8.187 9.97724 5.988C9.97724 3.789 8.18724 2 5.98824 2Z" fill="#2E2E2E"/>
</svg>
