<svg width="13" height="13" viewBox="0 0 13 13" fill="none" xmlns="http://www.w3.org/2000/svg">
<rect y="6" width="2" height="7" rx="1" fill="#F06451"/>
<rect x="5" y="6" width="2" height="7" rx="1" fill="#F06451"/>
<rect x="10" y="6" width="2" height="7" rx="1" fill="#F06451"/>
<path d="M1 2.5C0.447715 2.5 0 2.94772 0 3.5C0 4.05228 0.447715 4.5 1 4.5V2.5ZM11.5 4.5C12.0523 4.5 12.5 4.05228 12.5 3.5C12.5 2.94772 12.0523 2.5 11.5 2.5V4.5ZM1 4.5H11.5V2.5H1V4.5Z" fill="#F06451"/>
<path d="M9.70711 0.292893C9.31658 -0.0976311 8.68342 -0.0976311 8.29289 0.292893C7.90237 0.683417 7.90237 1.31658 8.29289 1.70711L9.70711 0.292893ZM10.7929 4.20711C11.1834 4.59763 11.8166 4.59763 12.2071 4.20711C12.5976 3.81658 12.5976 3.18342 12.2071 2.79289L10.7929 4.20711ZM8.29289 1.70711L10.7929 4.20711L12.2071 2.79289L9.70711 0.292893L8.29289 1.70711Z" fill="#F06451"/>
</svg>
