<svg width="44" height="28" viewBox="0 0 44 28" fill="none" xmlns="http://www.w3.org/2000/svg">
<path fill-rule="evenodd" clip-rule="evenodd" d="M4 0C1.79086 0 0 1.79087 0 4.00001V24C0 26.2092 1.79087 28 4.00001 28H40C42.2092 28 44 26.2092 44 24V4C44 1.79086 42.2092 0 40 0H4ZM38.0005 14C38.0005 15.1046 37.1051 16 36.0005 16C34.8959 16 34.0005 15.1046 34.0005 14C34.0005 12.8954 34.8959 12 36.0005 12C37.1051 12 38.0005 12.8954 38.0005 14ZM40.0005 14C40.0005 16.2091 38.2096 18 36.0005 18C33.7914 18 32.0005 16.2091 32.0005 14C32.0005 11.7909 33.7914 10 36.0005 10C38.2096 10 40.0005 11.7909 40.0005 14Z" fill="#FFC107"/>
</svg>
