<svg width="44" height="41" viewBox="0 0 44 41" fill="none" xmlns="http://www.w3.org/2000/svg">
<path d="M32.3717 40.589C32.0262 40.589 31.6732 40.5452 31.3237 40.4538L3.04533 32.8811C0.863864 32.2794 -0.436309 30.0229 0.134254 27.8431L3.24288 15.9222C3.43307 15.1906 4.1811 14.7463 4.91606 14.9422C5.64768 15.1324 6.08833 15.8821 5.89647 16.6154L2.7875 28.5382C2.59564 29.2732 3.0326 30.0319 3.76422 30.2332L32.0262 37.8022C32.7521 37.994 33.5018 37.5624 33.692 36.8402L34.6573 32.945C34.8405 32.2101 35.5828 31.7637 36.3178 31.9432C37.0531 32.126 37.5011 32.8684 37.3199 33.6033L36.3509 37.5169C35.8624 39.3692 34.1949 40.589 32.3717 40.589Z" fill="#FFC107"/>
<path d="M39.7723 29.6171H11.428C9.15876 29.6171 7.31348 27.7719 7.31348 25.5027V4.47288C7.31348 2.20369 9.15876 0.358398 11.428 0.358398H39.7723C42.0415 0.358398 43.8867 2.20369 43.8867 4.47288V25.5027C43.8867 27.7719 42.0415 29.6171 39.7723 29.6171ZM11.428 3.10138C10.6709 3.10138 10.0565 3.71581 10.0565 4.47288V25.5027C10.0565 26.2597 10.6709 26.8742 11.428 26.8742H39.7723C40.5293 26.8742 41.1438 26.2597 41.1438 25.5027V4.47288C41.1438 3.71581 40.5293 3.10138 39.7723 3.10138H11.428Z" fill="#FFC107"/>
<path d="M16.4572 13.1592C14.4402 13.1592 12.7998 11.5188 12.7998 9.50179C12.7998 7.48473 14.4402 5.84436 16.4572 5.84436C18.4743 5.84436 20.1143 7.48473 20.1143 9.50179C20.1143 11.5188 18.4743 13.1592 16.4572 13.1592ZM16.4572 8.58735C15.9523 8.58735 15.5428 8.99719 15.5428 9.50179C15.5428 10.0064 15.9523 10.4162 16.4572 10.4162C16.9618 10.4162 17.3713 10.0064 17.3713 9.50179C17.3713 8.99719 16.9618 8.58735 16.4572 8.58735Z" fill="#FFC107"/>
<path d="M8.72141 27.7518C8.3705 27.7518 8.01926 27.6182 7.75239 27.3497C7.21665 26.8139 7.21665 25.945 7.75239 25.4093L16.0178 17.1438C17.2688 15.8929 19.3039 15.8929 20.5529 17.1438L22.7638 19.3547L29.5553 11.2025C30.1624 10.4745 31.053 10.054 31.9986 10.0486C33.0152 9.99203 33.8382 10.4544 34.4506 11.1733L43.5538 21.794C44.0474 22.3683 43.9798 23.2352 43.4055 23.7287C42.8296 24.2226 41.9647 24.155 41.4708 23.5807L32.3643 12.9563C32.2434 12.8117 32.0954 12.8191 32.013 12.7933C31.9347 12.7933 31.7826 12.817 31.6621 12.9597L23.9086 22.2678C23.6615 22.5638 23.3016 22.7433 22.9175 22.7597C22.5261 22.7815 22.1567 22.6315 21.8859 22.3592L18.6128 19.0859C18.3805 18.8535 18.1886 18.8535 17.9562 19.0859L9.69076 27.3497C9.42356 27.6182 9.07265 27.7518 8.72141 27.7518Z" fill="#FFC107"/>
</svg>
