<svg width="39" height="45" viewBox="0 0 39 45" fill="none" xmlns="http://www.w3.org/2000/svg">
<path d="M33.8085 8.57498C33.3613 6.75513 32.0258 5.33407 30.2366 4.77554C28.4386 4.21325 26.5382 4.62345 25.1375 5.86566L22.9102 7.83436L33.5844 11.7193C33.9611 10.7296 34.0713 9.64435 33.8085 8.57498Z" fill="#FFC107"/>
<path d="M21.5135 4.54552C21.235 2.69245 20.0361 1.13762 18.3071 0.415491C16.578 -0.30786 14.6418 -0.0765969 13.1262 1.03019C12.2381 1.67967 11.6255 2.59923 11.2783 3.59963L21.9539 7.48531L21.5135 4.54552Z" fill="#FFC107"/>
<path d="M15.9668 22.0154V44.6476H18.5841V22.968L15.9668 22.0154Z" fill="#FFC107"/>
<path d="M1.56745 21.1801C0.844097 21.1801 0.258789 21.7654 0.258789 22.4887V40.7225C0.258789 42.8874 2.01986 44.6485 4.18476 44.6485H13.3453V21.1801H1.56745Z" fill="#FFC107"/>
<path d="M21.1914 23.9207V44.6475H30.3519C32.5167 44.6475 34.2779 42.8865 34.2779 40.7216V28.6837L21.1914 23.9207Z" fill="#FFC107"/>
<path d="M20.4317 9.71579L16.8516 19.5529L19.3119 20.4483L22.892 10.6112L20.4317 9.71579Z" fill="#FFC107"/>
<path d="M36.4153 15.5357L25.3481 11.5077L21.7676 21.3448L35.2946 26.2682C35.4416 26.3218 35.5937 26.3474 35.7419 26.3474C36.2761 26.3474 36.7783 26.0177 36.9713 25.486L38.7616 20.5671C39.5064 18.5239 38.4502 16.2773 36.4153 15.5357Z" fill="#FFC107"/>
<path d="M6.90155 4.79392C4.87085 4.05121 2.61534 5.09216 1.86879 7.1403L0.0796444 12.0593C-0.168274 12.7379 0.181934 13.4894 0.861769 13.736L14.3884 18.6592L17.9691 8.8221L6.90155 4.79392Z" fill="#FFC107"/>
</svg>
