<svg width="18" height="16" viewBox="0 0 18 16" fill="none" xmlns="http://www.w3.org/2000/svg">
<path d="M14.4283 1.59046C14.4399 1.03873 14.419 0.690109 14.419 0.690109L9.02735 0.686035H9H8.97265L3.58045 0.690109C3.58045 0.690109 3.56008 1.03873 3.57172 1.59046H0V2.17944C0 2.31388 0.0226979 5.48518 1.97995 7.22244C2.7965 7.94703 3.81499 8.31136 5.01565 8.31194C5.19723 8.31194 5.38405 8.29972 5.5732 8.28342C6.2553 9.21753 7.04333 9.87169 7.92971 10.1976V12.7846H5.3276V14.4049H4.46799V15.3134H8.97265H9.02735H13.532V14.4054H12.6718V12.7852H10.0697V10.1982C10.9555 9.87227 11.7441 9.21811 12.4262 8.284C12.6165 8.3003 12.8034 8.31194 12.9849 8.31194C14.185 8.31078 15.2035 7.94703 16.02 7.22186C17.9773 5.4846 18 2.3133 18 2.17886V1.59046H14.4283ZM2.76565 6.34421C1.64763 5.35481 1.31706 3.6612 1.21928 2.76842H3.63923C3.74166 3.88062 3.9826 5.26635 4.53841 6.48447C4.64026 6.70796 4.74735 6.9198 4.85676 7.12699C4.02276 7.09499 3.32087 6.83483 2.76565 6.34421ZM15.2344 6.34421C14.6797 6.83541 13.9772 7.09499 13.1438 7.12699C13.2532 6.92039 13.3603 6.70796 13.4622 6.48447C14.018 5.26635 14.2589 3.88062 14.3608 2.76842H16.7807C16.6829 3.66062 16.3529 5.35423 15.2344 6.34421Z" fill="#F06451"/>
</svg>
