<svg width="17" height="17" viewBox="0 0 17 17" fill="none" xmlns="http://www.w3.org/2000/svg">
<path d="M14.5035 2.49648C12.8937 0.88659 10.7616 0 8.5 0C6.23844 0 4.10633 0.88659 2.49648 2.49648C0.88659 4.10633 0 6.23844 0 8.5C0 10.7616 0.88659 12.8937 2.49648 14.5035C4.10633 16.1134 6.23844 17 8.5 17C10.7616 17 12.8937 16.1134 14.5035 14.5035C16.1134 12.8937 17 10.7616 17 8.5C17 6.23844 16.1134 4.10633 14.5035 2.49648Z" fill="#2E2E2E"/>
<circle cx="8.49026" cy="8.50979" r="5.07876" stroke="white"/>
<circle cx="6.06382" cy="10.6862" r="1.81584" stroke="white"/>
<circle cx="7.46141" cy="9.39897" r="3.73637" stroke="white"/>
</svg>
