<svg width="17" height="17" viewBox="0 0 17 17" fill="none" xmlns="http://www.w3.org/2000/svg">
<path fill-rule="evenodd" clip-rule="evenodd" d="M8.49982 0C10.7614 0 12.8935 0.88659 14.5033 2.49648C16.1132 4.10633 16.9998 6.23844 16.9998 8.5C16.9998 10.7616 16.1132 12.8937 14.5033 14.5035C12.8935 16.1134 10.7614 17 8.49982 17C6.23825 17 4.10615 16.1134 2.49629 14.5035C0.886407 12.8937 -0.000183105 10.7616 -0.000183105 8.5C-0.000183105 6.23844 0.886407 4.10633 2.49629 2.49648C4.10615 0.88659 6.23825 0 8.49982 0ZM7.59684 3H11.5908L9.00424 7.89984H11.3508L6.71876 13.6502H6.23942L7.60009 8.75008H5.99982L7.59684 3Z" fill="#2E2E2E"/>
</svg>
