<svg width="17" height="17" viewBox="0 0 17 17" fill="none" xmlns="http://www.w3.org/2000/svg">
<path d="M8.5 0C3.81318 0 0 3.81318 0 8.5C0 13.1868 3.81318 17 8.5 17C13.1868 17 17 13.1868 17 8.5C17 3.81318 13.1868 0 8.5 0Z" fill="#2E2E2E"/>
<path d="M7.9228 8.70439V8.73546L7.94477 8.75743L10.8701 11.6827C11.1039 11.9165 11.4829 11.9165 11.7167 11.6827C11.9505 11.449 11.9505 11.0699 11.7167 10.8361L9.1202 8.23964V3.77431C9.1202 3.44366 8.85215 3.17561 8.5215 3.17561C8.19085 3.17561 7.9228 3.44366 7.9228 3.77431V8.70439Z" fill="white" stroke="white" stroke-width="0.15"/>
</svg>
