<svg width="17" height="17" viewBox="0 0 17 17" fill="none" xmlns="http://www.w3.org/2000/svg">
<path fill-rule="evenodd" clip-rule="evenodd" d="M0 8.5C0 3.81318 3.81318 0 8.5 0C13.1868 0 17 3.81318 17 8.5C17 13.1868 13.1868 17 8.5 17C3.81318 17 0 13.1868 0 8.5ZM8.5 3.1875C8.7934 3.1875 9.03125 3.42535 9.03125 3.71875V8.28001L11.6875 10.9363C11.8949 11.1437 11.8949 11.48 11.6875 11.6875C11.4801 11.8949 11.1437 11.8949 10.9363 11.6875L7.96875 8.71996V3.71875C7.96875 3.42535 8.2066 3.1875 8.5 3.1875Z" fill="#2E2E2E"/>
</svg>
