<svg width="18" height="18" viewBox="0 0 18 18" fill="none" xmlns="http://www.w3.org/2000/svg">
<path d="M12.8571 3.21436H1.92857C0.863449 3.21436 0 4.0778 0 5.14293V16.0715C0 17.1366 0.863449 18 1.92857 18H12.8571C13.9222 18 14.7857 17.1366 14.7857 16.0715V5.14293C14.7857 4.0778 13.9222 3.21436 12.8571 3.21436ZM13.5 16.0715C13.5 16.4266 13.2122 16.7144 12.8571 16.7144H1.92857C1.57352 16.7144 1.2857 16.4266 1.2857 16.0715V5.14293C1.2857 4.78787 1.57352 4.50006 1.92857 4.50006H12.8571C13.2122 4.50006 13.5 4.78787 13.5 5.14293V16.0715Z" fill="#2E2E2E"/>
<path d="M16.0713 0H4.49986C3.43474 0 2.57129 0.863449 2.57129 1.92857C2.57129 2.28362 2.85911 2.57144 3.21416 2.57144C3.56921 2.57144 3.85699 2.28362 3.85699 1.92857C3.85699 1.57352 4.14481 1.2857 4.49986 1.2857H16.0713C16.4263 1.2857 16.7141 1.57352 16.7141 1.92857V13.5C16.7141 13.855 16.4263 14.1429 16.0713 14.1429C15.7162 14.1429 15.4284 14.4307 15.4284 14.7857C15.4284 15.1408 15.7162 15.4286 16.0713 15.4286C17.1364 15.4286 17.9998 14.5651 17.9998 13.5V1.92857C17.9998 0.863449 17.1364 0 16.0713 0Z" fill="#2E2E2E"/>
</svg>
