<svg width="15" height="17" viewBox="0 0 15 17" fill="none" xmlns="http://www.w3.org/2000/svg">
<path d="M13.875 6.375C14.4273 6.375 14.875 5.92728 14.875 5.375V5.25C14.875 4.69772 14.4273 4.25 13.875 4.25H13.3494C12.7479 4.25 12.2825 3.72282 12.3571 3.12597L12.6074 1.12403C12.682 0.527181 12.2166 0 11.6151 0H11.5057C11.0013 0 10.5759 0.375536 10.5134 0.875965L10.2011 3.37404C10.1386 3.87446 9.71317 4.25 9.20884 4.25H6.97547C6.37397 4.25 5.90859 3.72282 5.98319 3.12597L6.23343 1.12403C6.30804 0.527181 5.84265 0 5.24116 0H5.13172C4.6274 0 4.202 0.375536 4.13944 0.875965L3.82718 3.37404C3.76463 3.87446 3.33923 4.25 2.83491 4.25H0.999999C0.447715 4.25 0 4.69772 0 5.25V5.375C0 5.92728 0.447715 6.375 1 6.375H2.31956C2.92096 6.375 3.38632 6.90202 3.31187 7.49879L3.03118 9.74879C2.96874 10.2493 2.54329 10.625 2.03887 10.625H1C0.447715 10.625 0 11.0727 0 11.625V11.75C0 12.3023 0.447715 12.75 1 12.75H1.52347C2.12497 12.75 2.59035 13.2772 2.51575 13.874L2.2655 15.876C2.1909 16.4728 2.65628 17 3.25778 17H3.36722C3.87154 17 4.29694 16.6245 4.3595 16.124L4.67175 13.626C4.73431 13.1255 5.15971 12.75 5.66403 12.75H7.89819C8.49978 12.75 8.9652 13.2773 8.89043 13.8743L8.63975 15.8757C8.56499 16.4727 9.0304 17 9.632 17H9.74222C10.2465 17 10.6719 16.6245 10.7345 16.124L11.0468 13.626C11.1093 13.1255 11.5347 12.75 12.039 12.75H13.875C14.4273 12.75 14.875 12.3023 14.875 11.75V11.625C14.875 11.0727 14.4273 10.625 13.875 10.625H12.5541C11.9528 10.625 11.4875 10.0981 11.5618 9.50145L11.8419 7.25145C11.9042 6.75081 12.3297 6.375 12.8342 6.375H13.875ZM9.40599 9.74855C9.34366 10.2492 8.91817 10.625 8.41365 10.625H6.17938C5.57798 10.625 5.11262 10.098 5.18707 9.50121L5.46776 7.25121C5.5302 6.75067 5.95565 6.375 6.46006 6.375H8.69378C9.29508 6.375 9.76041 6.90185 9.68612 7.49855L9.40599 9.74855Z" fill="#2E2E2E"/>
</svg>
