<svg width="33" height="32" viewBox="0 0 33 32" fill="none" xmlns="http://www.w3.org/2000/svg">
    <path d="M16.3915 8.41897H16.3527C14.8671 8.41897 13.6626 7.21451 13.6626 5.72886V5.69011C13.6626 4.20446 14.8671 3 16.3527 3H16.3915C17.8771 3 19.0816 4.20446 19.0816 5.69011V5.72886C19.0816 7.21451 17.8771 8.41897 16.3915 8.41897Z" fill="#2E2E2E"/>
    <path d="M16.3915 19.0818H16.3527C14.8671 19.0818 13.6626 17.8774 13.6626 16.3917V16.353C13.6626 14.8673 14.8671 13.6628 16.3527 13.6628H16.3915C17.8771 13.6628 19.0816 14.8673 19.0816 16.353V16.3917C19.0816 17.8774 17.8771 19.0818 16.3915 19.0818Z" fill="#2E2E2E"/>
    <path d="M8.41897 16.353V16.3917C8.41897 17.8774 7.21451 19.0818 5.72886 19.0818H5.69011C4.20446 19.0818 3 17.8774 3 16.3917V16.353C3 14.8673 4.20446 13.6628 5.69011 13.6628H5.72886C7.21451 13.6628 8.41897 14.8673 8.41897 16.353Z" fill="#2E2E2E"/>
    <path d="M16.3523 23.848H16.3911C17.8765 23.848 19.0808 25.0523 19.0808 26.5377V26.5765C19.0808 28.0619 17.8765 29.2662 16.3911 29.2662H16.3523C14.8669 29.2662 13.6626 28.0619 13.6626 26.5765V26.5377C13.6626 25.0523 14.8669 23.848 16.3523 23.848Z" fill="#2E2E2E"/>
    <path d="M24.5811 16.3917V16.353C24.5811 14.8673 25.7855 13.6628 27.2712 13.6628H27.3099C28.7956 13.6628 30 14.8673 30 16.353V16.3917C30 17.8774 28.7956 19.0818 27.3099 19.0818H27.2712C25.7855 19.0818 24.5811 17.8774 24.5811 16.3917Z" fill="#2E2E2E"/>
    <path d="M9.15731 25.1518C10.1027 25.1518 10.8691 24.3855 10.8691 23.4401C10.8691 22.4947 10.1027 21.7283 9.15731 21.7283C8.21194 21.7283 7.44556 22.4947 7.44556 23.4401C7.44556 24.3855 8.21194 25.1518 9.15731 25.1518Z" fill="#2E2E2E"/>
    <path d="M9.15731 9.85082C10.1027 9.85082 10.8691 9.08444 10.8691 8.13906C10.8691 7.19369 10.1027 6.42731 9.15731 6.42731C8.21194 6.42731 7.44556 7.19369 7.44556 8.13906C7.44556 9.08444 8.21194 9.85082 9.15731 9.85082Z" fill="#2E2E2E"/>
    <path d="M23.3717 9.85082C24.317 9.85082 25.0834 9.08444 25.0834 8.13906C25.0834 7.19369 24.317 6.42731 23.3717 6.42731C22.4263 6.42731 21.6599 7.19369 21.6599 8.13906C21.6599 9.08444 22.4263 9.85082 23.3717 9.85082Z" fill="#2E2E2E"/>
    <path d="M23.3753 25.1525C24.3207 25.1525 25.0871 24.3861 25.0871 23.4408C25.0871 22.4954 24.3207 21.729 23.3753 21.729C22.43 21.729 21.6636 22.4954 21.6636 23.4408C21.6636 24.3861 22.43 25.1525 23.3753 25.1525Z" fill="#2E2E2E"/>
</svg>
