<svg width="131" height="42" viewBox="0 0 131 42" fill="none" xmlns="http://www.w3.org/2000/svg">
<path d="M51.4218 0.608582C49.2103 0.608582 47.9817 1.34574 47.9817 3.31149C47.8998 10.9288 47.9817 27.5393 47.9817 33.0434C47.9817 39.9235 53.879 40.6607 55.3533 40.6607C56.8276 40.6607 58.5476 40.1693 58.5476 37.4664C58.5476 34.7635 57.5647 34.5177 57.0733 34.5177C56.5819 34.5177 54.3704 34.7635 54.3704 33.0434V3.31149C54.3704 2.08289 53.6332 0.608582 51.4218 0.608582Z" fill="url(#paint0_linear)"/>
<path d="M51.4218 0.608582C49.2103 0.608582 47.9817 1.34574 47.9817 3.31149C47.8998 10.9288 47.9817 27.5393 47.9817 33.0434C47.9817 39.9235 53.879 40.6607 55.3533 40.6607C56.8276 40.6607 58.5476 40.1693 58.5476 37.4664C58.5476 34.7635 57.5647 34.5177 57.0733 34.5177C56.5819 34.5177 54.3704 34.7635 54.3704 33.0434V3.31149C54.3704 2.08289 53.6332 0.608582 51.4218 0.608582Z" fill="black"/>
<path d="M65.6731 14.6141C63.9531 14.6141 62.4788 15.3513 62.4788 17.0713V29.3573C62.4788 31.5687 63.4616 40.6603 74.2732 40.6603C85.0849 40.6603 85.822 31.0773 85.822 29.3573V17.0713C85.822 15.1056 83.3648 14.8599 82.8734 14.8599C82.382 14.8599 79.6791 14.8599 79.6791 17.0713V29.3573C79.6791 32.5516 76.9762 34.2716 74.2732 34.2716C71.5703 34.2716 68.8674 32.5516 68.8674 29.3573V17.0713C68.8674 15.597 67.3931 14.6141 65.6731 14.6141Z" fill="url(#paint1_linear)"/>
<path d="M65.6731 14.6141C63.9531 14.6141 62.4788 15.3513 62.4788 17.0713V29.3573C62.4788 31.5687 63.4616 40.6603 74.2732 40.6603C85.0849 40.6603 85.822 31.0773 85.822 29.3573V17.0713C85.822 15.1056 83.3648 14.8599 82.8734 14.8599C82.382 14.8599 79.6791 14.8599 79.6791 17.0713V29.3573C79.6791 32.5516 76.9762 34.2716 74.2732 34.2716C71.5703 34.2716 68.8674 32.5516 68.8674 29.3573V17.0713C68.8674 15.597 67.3931 14.6141 65.6731 14.6141Z" fill="black"/>
<path d="M91.9307 18.0547V36.975C91.9307 38.9408 92.9135 40.4151 95.125 40.4151C97.3365 40.4151 98.3193 38.6951 98.3193 36.975V24.9348C98.3193 22.2319 101.022 20.5119 103.479 20.5119C105.937 20.5119 108.148 22.7234 108.148 24.9348V37.7122C108.148 39.9237 110.605 40.1694 111.342 40.1694C112.08 40.1694 114.537 39.6779 114.537 37.7122V24.6891C114.537 22.7234 117.485 20.5119 119.697 20.5119C121.908 20.5119 124.366 22.4776 124.366 24.6891V37.9579C124.366 39.9237 127.068 40.1694 127.56 40.1694C128.051 40.1694 131 40.1694 131 37.9579V24.6891C131 23.4605 130.508 21.4948 130.263 20.7576C129.034 16.8261 125.103 14.3689 121.171 14.3689C117.24 14.3689 113.8 16.5804 112.08 18.0547C109.868 14.8604 106.674 14.3689 104.708 14.3689C102.742 14.3689 99.7937 15.5975 98.3193 16.5804C97.5822 15.3518 96.5993 14.6146 95.3707 14.6146C94.1421 14.6146 91.9307 15.1061 91.9307 18.0547Z" fill="url(#paint2_linear)"/>
<path d="M91.9307 18.0547V36.975C91.9307 38.9408 92.9135 40.4151 95.125 40.4151C97.3365 40.4151 98.3193 38.6951 98.3193 36.975V24.9348C98.3193 22.2319 101.022 20.5119 103.479 20.5119C105.937 20.5119 108.148 22.7234 108.148 24.9348V37.7122C108.148 39.9237 110.605 40.1694 111.342 40.1694C112.08 40.1694 114.537 39.6779 114.537 37.7122V24.6891C114.537 22.7234 117.485 20.5119 119.697 20.5119C121.908 20.5119 124.366 22.4776 124.366 24.6891V37.9579C124.366 39.9237 127.068 40.1694 127.56 40.1694C128.051 40.1694 131 40.1694 131 37.9579V24.6891C131 23.4605 130.508 21.4948 130.263 20.7576C129.034 16.8261 125.103 14.3689 121.171 14.3689C117.24 14.3689 113.8 16.5804 112.08 18.0547C109.868 14.8604 106.674 14.3689 104.708 14.3689C102.742 14.3689 99.7937 15.5975 98.3193 16.5804C97.5822 15.3518 96.5993 14.6146 95.3707 14.6146C94.1421 14.6146 91.9307 15.1061 91.9307 18.0547Z" fill="black"/>
<path d="M2 8.78147V28.8825H13.0445V8.78147C13.0445 5.73162 10.5721 3.25922 7.52226 3.25922C4.4724 3.25922 2 5.73161 2 8.78147Z" stroke="black" stroke-width="3.97603"/>
<path d="M2 25.5692V28.8825H13.0445V25.5692C13.0445 22.5193 10.5721 20.0469 7.52226 20.0469C4.4724 20.0469 2 22.5193 2 25.5692Z" stroke="black" stroke-width="3.97603"/>
<path d="M2 17.6171V28.8825H13.0445V17.6171C13.0445 14.5672 10.5721 12.0948 7.52226 12.0948C4.4724 12.0948 2 14.5673 2 17.6171Z" stroke="black" stroke-width="3.97603"/>
<path d="M22.594 28.9843H2V34.7848C2 37.1365 3.90646 39.043 6.2582 39.043H22.5939C25.3716 39.043 27.6233 36.7913 27.6233 34.0136C27.6233 31.236 25.3716 28.9843 22.594 28.9843Z" stroke="black" stroke-width="3.97603"/>
<defs>
<linearGradient id="paint0_linear" x1="45.5246" y1="45.6058" x2="70.3422" y2="16.611" gradientUnits="userSpaceOnUse">
<stop stop-color="#B18045"/>
<stop offset="1" stop-color="#FAC579"/>
</linearGradient>
<linearGradient id="paint1_linear" x1="57.149" y1="43.8761" x2="64.9121" y2="13.1693" gradientUnits="userSpaceOnUse">
<stop stop-color="#B18045"/>
<stop offset="1" stop-color="#FAC579"/>
</linearGradient>
<linearGradient id="paint2_linear" x1="83.0104" y1="43.6309" x2="87.835" y2="11.6903" gradientUnits="userSpaceOnUse">
<stop stop-color="#B18045"/>
<stop offset="1" stop-color="#FAC579"/>
</linearGradient>
</defs>
</svg>
