<svg width="84" height="41" viewBox="0 0 84 41" fill="none" xmlns="http://www.w3.org/2000/svg">
<path d="M4.42177 0.608582C2.21031 0.608582 0.981715 1.34574 0.981715 3.31149C0.899809 10.9288 0.981715 27.5393 0.981715 33.0434C0.981715 39.9235 6.87896 40.6607 8.35327 40.6607C9.82758 40.6607 11.5476 40.1693 11.5476 37.4664C11.5476 34.7635 10.5647 34.5177 10.0733 34.5177C9.58186 34.5177 7.3704 34.7635 7.3704 33.0434V3.31149C7.3704 2.08289 6.63324 0.608582 4.42177 0.608582Z" fill="url(#paint0_linear)"/>
<path d="M4.42177 0.608582C2.21031 0.608582 0.981715 1.34574 0.981715 3.31149C0.899809 10.9288 0.981715 27.5393 0.981715 33.0434C0.981715 39.9235 6.87896 40.6607 8.35327 40.6607C9.82758 40.6607 11.5476 40.1693 11.5476 37.4664C11.5476 34.7635 10.5647 34.5177 10.0733 34.5177C9.58186 34.5177 7.3704 34.7635 7.3704 33.0434V3.31149C7.3704 2.08289 6.63324 0.608582 4.42177 0.608582Z" fill="black"/>
<path d="M18.6731 14.6141C16.9531 14.6141 15.4788 15.3513 15.4788 17.0713V29.3573C15.4788 31.5687 16.4616 40.6603 27.2732 40.6603C38.0849 40.6603 38.822 31.0773 38.822 29.3573V17.0713C38.822 15.1056 36.3648 14.8599 35.8734 14.8599C35.382 14.8599 32.6791 14.8599 32.6791 17.0713V29.3573C32.6791 32.5516 29.9762 34.2716 27.2732 34.2716C24.5703 34.2716 21.8674 32.5516 21.8674 29.3573V17.0713C21.8674 15.597 20.3931 14.6141 18.6731 14.6141Z" fill="url(#paint1_linear)"/>
<path d="M18.6731 14.6141C16.9531 14.6141 15.4788 15.3513 15.4788 17.0713V29.3573C15.4788 31.5687 16.4616 40.6603 27.2732 40.6603C38.0849 40.6603 38.822 31.0773 38.822 29.3573V17.0713C38.822 15.1056 36.3648 14.8599 35.8734 14.8599C35.382 14.8599 32.6791 14.8599 32.6791 17.0713V29.3573C32.6791 32.5516 29.9762 34.2716 27.2732 34.2716C24.5703 34.2716 21.8674 32.5516 21.8674 29.3573V17.0713C21.8674 15.597 20.3931 14.6141 18.6731 14.6141Z" fill="black"/>
<path d="M44.9307 18.0547V36.975C44.9307 38.9408 45.9135 40.4151 48.125 40.4151C50.3365 40.4151 51.3193 38.6951 51.3193 36.975V24.9348C51.3193 22.2319 54.0223 20.5119 56.4794 20.5119C58.9366 20.5119 61.1481 22.7234 61.1481 24.9348V37.7122C61.1481 39.9237 63.6053 40.1694 64.3424 40.1694C65.0796 40.1694 67.5368 39.6779 67.5368 37.7122V24.6891C67.5368 22.7234 70.4854 20.5119 72.6969 20.5119C74.9083 20.5119 77.3655 22.4776 77.3655 24.6891V37.9579C77.3655 39.9237 80.0684 40.1694 80.5599 40.1694C81.0513 40.1694 83.9999 40.1694 83.9999 37.9579V24.6891C83.9999 23.4605 83.5085 21.4948 83.2628 20.7576C82.0342 16.8261 78.1027 14.3689 74.1712 14.3689C70.2397 14.3689 66.7996 16.5804 65.0796 18.0547C62.8681 14.8604 59.6738 14.3689 57.708 14.3689C55.7423 14.3689 52.7937 15.5975 51.3193 16.5804C50.5822 15.3518 49.5993 14.6146 48.3707 14.6146C47.1421 14.6146 44.9307 15.1061 44.9307 18.0547Z" fill="url(#paint2_linear)"/>
<path d="M44.9307 18.0547V36.975C44.9307 38.9408 45.9135 40.4151 48.125 40.4151C50.3365 40.4151 51.3193 38.6951 51.3193 36.975V24.9348C51.3193 22.2319 54.0223 20.5119 56.4794 20.5119C58.9366 20.5119 61.1481 22.7234 61.1481 24.9348V37.7122C61.1481 39.9237 63.6053 40.1694 64.3424 40.1694C65.0796 40.1694 67.5368 39.6779 67.5368 37.7122V24.6891C67.5368 22.7234 70.4854 20.5119 72.6969 20.5119C74.9083 20.5119 77.3655 22.4776 77.3655 24.6891V37.9579C77.3655 39.9237 80.0684 40.1694 80.5599 40.1694C81.0513 40.1694 83.9999 40.1694 83.9999 37.9579V24.6891C83.9999 23.4605 83.5085 21.4948 83.2628 20.7576C82.0342 16.8261 78.1027 14.3689 74.1712 14.3689C70.2397 14.3689 66.7996 16.5804 65.0796 18.0547C62.8681 14.8604 59.6738 14.3689 57.708 14.3689C55.7423 14.3689 52.7937 15.5975 51.3193 16.5804C50.5822 15.3518 49.5993 14.6146 48.3707 14.6146C47.1421 14.6146 44.9307 15.1061 44.9307 18.0547Z" fill="black"/>
<defs>
<linearGradient id="paint0_linear" x1="-1.4754" y1="45.6058" x2="23.3422" y2="16.611" gradientUnits="userSpaceOnUse">
<stop stop-color="#B18045"/>
<stop offset="1" stop-color="#FAC579"/>
</linearGradient>
<linearGradient id="paint1_linear" x1="10.149" y1="43.8761" x2="17.9121" y2="13.1693" gradientUnits="userSpaceOnUse">
<stop stop-color="#B18045"/>
<stop offset="1" stop-color="#FAC579"/>
</linearGradient>
<linearGradient id="paint2_linear" x1="36.0104" y1="43.6309" x2="40.835" y2="11.6903" gradientUnits="userSpaceOnUse">
<stop stop-color="#B18045"/>
<stop offset="1" stop-color="#FAC579"/>
</linearGradient>
</defs>
</svg>
