<svg width="16" height="15" viewBox="0 0 16 15" fill="none" xmlns="http://www.w3.org/2000/svg">
<path d="M11.2828 14.7239C11.1624 14.7239 11.0394 14.7086 10.9175 14.6767L1.06142 12.0373C0.30109 11.8276 -0.152071 11.0412 0.0467926 10.2814L1.13027 6.12653C1.19656 5.87153 1.45728 5.71666 1.71344 5.78494C1.96844 5.85122 2.12202 6.11252 2.05515 6.36811L0.971554 10.5237C0.904683 10.7799 1.05698 11.0443 1.31198 11.1145L11.1624 13.7525C11.4154 13.8194 11.6767 13.669 11.743 13.4173L12.0794 12.0596C12.1433 11.8035 12.402 11.6479 12.6582 11.7105C12.9144 11.7742 13.0706 12.0329 13.0075 12.2891L12.6697 13.6531C12.4994 14.2987 11.9183 14.7239 11.2828 14.7239Z" fill="#1F1F1F"/>
<path d="M13.863 10.8997H3.98386C3.19296 10.8997 2.5498 10.2566 2.5498 9.46566V2.13596C2.5498 1.34506 3.19296 0.701904 3.98386 0.701904H13.863C14.6539 0.701904 15.297 1.34506 15.297 2.13596V9.46566C15.297 10.2566 14.6539 10.8997 13.863 10.8997ZM3.98386 1.65794C3.71999 1.65794 3.50584 1.87209 3.50584 2.13596V9.46566C3.50584 9.72953 3.71999 9.94368 3.98386 9.94368H13.863C14.1268 9.94368 14.341 9.72953 14.341 9.46566V2.13596C14.341 1.87209 14.1268 1.65794 13.863 1.65794H3.98386Z" fill="#1F1F1F"/>
<path d="M5.73569 5.16353C5.03267 5.16353 4.46094 4.59179 4.46094 3.88877C4.46094 3.18575 5.03267 2.61401 5.73569 2.61401C6.43872 2.61401 7.01033 3.18575 7.01033 3.88877C7.01033 4.59179 6.43872 5.16353 5.73569 5.16353ZM5.73569 3.57005C5.5597 3.57005 5.41698 3.7129 5.41698 3.88877C5.41698 4.06464 5.5597 4.20749 5.73569 4.20749C5.91157 4.20749 6.0543 4.06464 6.0543 3.88877C6.0543 3.7129 5.91157 3.57005 5.73569 3.57005Z" fill="#1F1F1F"/>
<path d="M3.04029 10.2495C2.91798 10.2495 2.79556 10.2029 2.70254 10.1094C2.51582 9.92263 2.51582 9.61978 2.70254 9.43305L5.58338 6.55222C6.01938 6.11621 6.72871 6.11621 7.16402 6.55222L7.93461 7.32281L10.3017 4.48143C10.5133 4.22771 10.8237 4.08113 11.1533 4.07926C11.5076 4.05954 11.7945 4.22071 12.0079 4.47127L15.1808 8.173C15.3528 8.37315 15.3292 8.6753 15.1291 8.84732C14.9283 9.01946 14.6269 8.99588 14.4547 8.79573L11.2807 5.09272C11.2386 5.0423 11.187 5.04487 11.1583 5.03589C11.131 5.03589 11.078 5.04417 11.036 5.09389L8.33362 8.33814C8.24749 8.4413 8.12204 8.50386 7.98818 8.50958C7.85175 8.51716 7.72303 8.46488 7.62861 8.37L6.48783 7.2291C6.40684 7.14811 6.33997 7.14811 6.25898 7.2291L3.37814 10.1094C3.28501 10.2029 3.16271 10.2495 3.04029 10.2495Z" fill="#1F1F1F"/>
</svg>
