<svg width="17" height="17" viewBox="0 0 17 17" fill="none" xmlns="http://www.w3.org/2000/svg">
<path fill-rule="evenodd" clip-rule="evenodd" d="M0.422071 7.72242C0.417054 7.89395 0.487242 8.0591 0.614212 8.17454L9.34053 16.1084C9.58075 16.3268 9.95252 16.3091 10.1709 16.0689L15.9998 9.65772C16.2182 9.41751 16.2005 9.04573 15.9603 8.82734L7.23398 0.893523C7.10701 0.778084 6.93594 0.723891 6.76566 0.745167L1.10358 1.45264C0.815884 1.48859 0.597362 1.72894 0.588886 2.01875L0.422071 7.72242ZM6.84397 7.18867C7.36626 6.61421 7.32396 5.72513 6.74951 5.20284C6.17505 4.68055 5.28597 4.72285 4.76368 5.2973C4.2414 5.87176 4.28369 6.76085 4.85815 7.28313C5.4326 7.80542 6.32169 7.76312 6.84397 7.18867Z" fill="#3BDCC4"/>
</svg>
