<svg width="13" height="15" viewBox="0 0 13 15" fill="none" xmlns="http://www.w3.org/2000/svg">
<path d="M11.1231 13.5616V12.0649C11.1231 10.3021 9.761 9.24779 8.45187 8.21918C8.27105 8.07741 8.04089 7.8082 8.04089 7.39726C8.04089 6.98631 8.24822 6.58562 8.45187 6.41423C9.72561 5.34246 11.1231 4.33128 11.1231 2.56849V1.43836H12.1505V0H0.849121V1.43836H1.8765V2.56852C1.8765 4.33134 3.27396 5.34249 4.54776 6.41426C4.75141 6.58564 4.95874 6.98631 4.95874 7.39729C4.95874 7.80826 4.72858 8.07741 4.54776 8.21921C3.23866 9.24785 1.8765 10.3022 1.8765 12.065V13.5617H0.849121V15H12.1505V13.5616H11.1231ZM3.90522 3.9041C3.5265 3.47546 3.31489 3.06287 3.31489 2.56849V1.43836H9.68474V2.56852C9.68474 3.06287 9.47307 3.47552 9.0944 3.90413H3.90522V3.9041ZM9.68474 13.1608L7.26563 12.2166C6.8444 12.0522 6.15543 12.0522 5.7342 12.2166L3.31489 13.1608V12.065C3.31489 11.0676 4.10764 10.3941 5.40133 9.37775L5.43563 9.35086C5.92671 8.96578 6.24522 8.4295 6.35333 7.83853C6.4501 7.86009 6.54956 7.86009 6.64633 7.83853C6.75399 8.4293 7.07289 8.96561 7.56335 9.35024L7.59827 9.37775C8.89196 10.394 9.68471 11.0674 9.68471 12.065V13.1608H9.68474Z" fill="#FFC107"/>
</svg>
