<svg width="73" height="73" viewBox="0 0 73 73" fill="none" xmlns="http://www.w3.org/2000/svg">
<path d="M56.7454 56.7778L4.76087 56.7778C2.13152 56.7778 4.03483e-06 54.962 4.13274e-06 52.7222C4.23065e-06 50.4824 2.13152 48.6667 4.76087 48.6667L56.7454 48.6667L45.8292 39.3677C43.97 37.7839 43.97 35.2161 45.8292 33.6323C47.6884 32.0485 50.7029 32.0485 52.5621 33.6323L71.6056 49.8545C73.4648 51.4383 73.4648 54.0061 71.6056 55.5899L52.5621 71.8121C50.7029 73.3959 47.6884 73.3959 45.8292 71.8121C43.97 70.2284 43.97 67.6605 45.8292 66.0767L56.7454 56.7778ZM16.2546 16.2222L68.2391 16.2222C70.8685 16.2222 73 18.038 73 20.2778C73 22.5176 70.8685 24.3333 68.2391 24.3333L16.2546 24.3333L27.1708 33.6323C29.03 35.2161 29.03 37.7839 27.1708 39.3677C25.3116 40.9515 22.2971 40.9515 20.4379 39.3677L1.39443 23.1455C-0.464807 21.5617 -0.464807 18.9939 1.39443 17.4101L20.4379 1.18784C22.2971 -0.39595 25.3116 -0.39595 27.1708 1.18784C29.03 2.77164 29.03 5.33947 27.1708 6.92326L16.2546 16.2222Z" fill="#2E2E2E"/>
</svg>
