<svg width="73" height="75" viewBox="0 0 73 75" fill="none" xmlns="http://www.w3.org/2000/svg">
<path d="M38.4704 62.4074L3.88192 62.4074C2.13245 62.4074 0.71422 60.9979 0.71422 59.2592C0.71422 57.5206 2.13245 56.1111 3.88192 56.1111L38.4704 56.1111L31.2072 48.8927C29.9702 47.6633 29.9702 45.67 31.2072 44.4406C32.4443 43.2111 34.45 43.2111 35.687 44.4406L48.3578 57.0332C49.5949 58.2626 49.5949 60.2559 48.3578 61.4853L35.687 74.0779C34.45 75.3073 32.4443 75.3073 31.2072 74.0779C29.9702 72.8485 29.9702 70.8552 31.2072 69.6257L38.4704 62.4074ZM11.5294 30.9259L46.1179 30.9259C47.8674 30.9259 49.2856 32.3354 49.2856 34.0741C49.2856 35.8127 47.8674 37.2222 46.1179 37.2222L11.5294 37.2222L18.7926 44.4406C20.0297 45.67 20.0297 47.6633 18.7926 48.8927C17.5556 50.1221 15.5499 50.1221 14.3128 48.8927L1.64202 36.3001C0.404956 35.0707 0.404956 33.0774 1.64202 31.848L14.3128 19.2554C15.5499 18.026 17.5556 18.026 18.7926 19.2554C20.0297 20.4848 20.0297 22.4781 18.7926 23.7075L11.5294 30.9259Z" fill="#2E2E2E"/>
<g filter="url(#filter0_d)">
<circle cx="49" cy="20" r="20" fill="white"/>
</g>
<path d="M44 15L55 26" stroke="#C9C9C9" stroke-width="2.65349" stroke-linecap="round" stroke-linejoin="round"/>
<path d="M44 26L55 15" stroke="#C9C9C9" stroke-width="2.65349" stroke-linecap="round" stroke-linejoin="round"/>
<defs>
<filter id="filter0_d" x="25" y="0" width="48" height="48" filterUnits="userSpaceOnUse" color-interpolation-filters="sRGB">
<feFlood flood-opacity="0" result="BackgroundImageFix"/>
<feColorMatrix in="SourceAlpha" type="matrix" values="0 0 0 0 0 0 0 0 0 0 0 0 0 0 0 0 0 0 127 0"/>
<feOffset dy="4"/>
<feGaussianBlur stdDeviation="2"/>
<feColorMatrix type="matrix" values="0 0 0 0 0 0 0 0 0 0 0 0 0 0 0 0 0 0 0.25 0"/>
<feBlend mode="normal" in2="BackgroundImageFix" result="effect1_dropShadow"/>
<feBlend mode="normal" in="SourceGraphic" in2="effect1_dropShadow" result="shape"/>
</filter>
</defs>
</svg>
