<svg width="24" height="24" viewBox="0 0 24 24" fill="none" xmlns="http://www.w3.org/2000/svg">
<path d="M17.4999 23.9978H0.499996C0.223998 23.9978 0 23.7738 0 23.4978C0 23.2218 0.223998 22.9978 0.499996 22.9978H17.4999C17.7759 22.9978 17.9999 23.2218 17.9999 23.4978C17.9999 23.7738 17.7759 23.9978 17.4999 23.9978Z" fill="#2E2E2E"/>
<path d="M21.3682 9.68568C21.3662 9.68568 21.3652 9.68568 21.3632 9.68568C20.9612 9.68468 20.5842 9.52568 20.3012 9.24068L14.7772 3.65372C14.1992 3.06873 14.2022 2.11973 14.7842 1.53874L15.8842 0.438747C16.4682 -0.146249 17.4212 -0.146249 18.0052 0.438747L23.5611 5.9937C24.1461 6.5787 24.1461 7.53069 23.5611 8.11569L22.4291 9.24768C22.1452 9.52968 21.7692 9.68568 21.3682 9.68568Z" fill="#2E2E2E"/>
<path d="M5.85376 12.5835C5.63877 12.5835 5.43977 12.4435 5.37477 12.2275C5.20177 11.6525 5.11377 11.0555 5.11377 10.4535C5.11377 9.50855 5.33977 8.55456 5.76476 7.69257C6.56976 6.08358 8.03675 4.90559 9.79073 4.45859L15.2607 3.0686C15.5307 2.9966 15.7997 3.1626 15.8677 3.4296C15.9357 3.6966 15.7737 3.96959 15.5067 4.03659L10.0367 5.42658C8.56474 5.80258 7.33475 6.79057 6.66076 8.13756C6.30376 8.86056 6.11376 9.66155 6.11376 10.4535C6.11376 10.9575 6.18676 11.4575 6.33176 11.9405C6.41176 12.2045 6.26176 12.4835 5.99676 12.5635C5.94876 12.5765 5.90076 12.5835 5.85376 12.5835Z" fill="#2E2E2E"/>
<path fill-rule="evenodd" clip-rule="evenodd" d="M15.8527 15.0299L12.4611 17.9975L11.0765 18.9206L9.69189 17.536V16.6129L11.9996 13.3821L12.4608 12.9978L13.6297 12.0237C13.5796 12.0069 13.5261 11.9978 13.4704 11.9978H2.49951C2.22351 11.9978 1.99951 12.2218 1.99951 12.4978V23.4977C1.99951 23.7737 2.22351 23.9977 2.49951 23.9977H15.5164C15.7924 23.9977 16.0164 23.7737 16.0164 23.4977V15.3998C16.0164 15.2532 15.9533 15.1213 15.8527 15.0299Z" fill="#2E2E2E"/>
<path d="M11.2339 19.4896C10.4299 19.4896 9.70393 19.0756 9.29093 18.3826C8.76393 17.4966 8.93393 16.3366 9.70393 15.5626L13.2349 12.0256C12.8149 11.5226 12.1989 11.2476 11.5229 11.2816C10.8099 11.3186 10.1719 11.7116 9.81792 12.3326C9.67893 12.5736 9.37193 12.6546 9.13493 12.5186C8.89593 12.3816 8.81193 12.0766 8.94793 11.8366C9.47193 10.9196 10.4149 10.3387 11.4699 10.2827C12.5209 10.2257 13.5239 10.7067 14.1419 11.5646L14.2979 11.7816C14.4379 11.9766 14.4199 12.2446 14.2539 12.4186L10.4099 16.2686C9.96992 16.7116 9.85892 17.3856 10.1479 17.8706C10.5569 18.5596 11.5789 18.6746 12.1389 18.1156L16.4809 13.7056L19.9618 8.34167C20.1128 8.10967 20.4228 8.04467 20.6528 8.19467C20.8838 8.34467 20.9498 8.65466 20.7988 8.88566L17.2899 14.2926C17.2719 14.3216 17.2509 14.3476 17.2269 14.3726L12.8479 18.8206C12.4179 19.2526 11.8449 19.4896 11.2339 19.4896Z" fill="#2E2E2E"/>
</svg>
