<svg width="22" height="21" viewBox="0 0 22 21" fill="none" xmlns="http://www.w3.org/2000/svg">
<path d="M15.8122 20.9978H0.93749C0.695996 20.9978 0.5 20.8018 0.5 20.5603C0.5 20.3188 0.695996 20.1228 0.93749 20.1228H15.8122C16.0537 20.1228 16.2497 20.3188 16.2497 20.5603C16.2497 20.8018 16.0537 20.9978 15.8122 20.9978Z" fill="white"/>
<path d="M19.1968 8.47485C19.1951 8.47485 19.1942 8.47485 19.1924 8.47485C18.8407 8.47397 18.5108 8.33485 18.2632 8.08548L13.4298 3.19696C12.9241 2.6851 12.9267 1.85474 13.4359 1.34638L14.3984 0.383898C14.9094 -0.127966 15.7433 -0.127966 16.2542 0.383898L21.1156 5.24442C21.6275 5.75628 21.6275 6.58926 21.1156 7.10113L20.1252 8.09161C19.8767 8.33835 19.5477 8.47485 19.1968 8.47485Z" fill="white"/>
<path d="M5.62161 11.0103C5.43349 11.0103 5.25936 10.8878 5.20249 10.6989C5.05112 10.1957 4.97412 9.67338 4.97412 9.14664C4.97412 8.31978 5.17187 7.48505 5.54373 6.73082C6.24809 5.32297 7.53169 4.29224 9.06641 3.90113L13.8526 2.6849C14.0888 2.62191 14.3242 2.76715 14.3837 3.00077C14.4432 3.23439 14.3014 3.47326 14.0678 3.53189L9.28165 4.74811C7.99368 5.0771 6.91745 5.94158 6.32772 7.12018C6.01535 7.75279 5.8491 8.45365 5.8491 9.14664C5.8491 9.58763 5.91298 10.0251 6.03985 10.4477C6.10985 10.6787 5.9786 10.9228 5.74673 10.9928C5.70473 11.0042 5.66273 11.0103 5.62161 11.0103V11.0103Z" fill="white"/>
<path fill-rule="evenodd" clip-rule="evenodd" d="M14.3709 13.1511L11.4035 15.7476L10.192 16.5552L8.98049 15.3437V14.536L10.9997 11.7092L11.4031 11.373L12.4258 10.5207C12.382 10.506 12.3351 10.498 12.2864 10.498H2.687C2.44551 10.498 2.24951 10.694 2.24951 10.9355V20.5603C2.24951 20.8018 2.44551 20.9978 2.687 20.9978H14.0766C14.3181 20.9978 14.5141 20.8018 14.5141 20.5603V13.4747C14.5141 13.3465 14.4589 13.2311 14.3709 13.1511Z" fill="white"/>
<path d="M10.3296 17.0531C9.62616 17.0531 8.99092 16.6908 8.62956 16.0845C8.16844 15.3093 8.31719 14.2943 8.99092 13.617L12.0805 10.5222C11.713 10.0821 11.174 9.8415 10.5825 9.87125C9.95865 9.90362 9.40042 10.2475 9.09067 10.7909C8.96905 11.0017 8.70043 11.0726 8.49306 10.9536C8.28394 10.8337 8.21044 10.5669 8.32944 10.3569C8.78793 9.5545 9.61304 9.04614 10.5361 8.99714C11.4557 8.94727 12.3334 9.36813 12.8741 10.1189L13.0106 10.3087C13.1331 10.4794 13.1173 10.7139 12.9721 10.8661L9.60866 14.2348C9.22367 14.6224 9.12655 15.2121 9.37942 15.6365C9.73728 16.2394 10.6315 16.34 11.1215 15.8509L14.9207 11.9922L17.9665 7.2988C18.0986 7.09581 18.3698 7.03893 18.5711 7.17018C18.7732 7.30143 18.831 7.57267 18.6988 7.77479L15.6285 12.5058C15.6128 12.5312 15.5944 12.5539 15.5734 12.5758L11.7419 16.4677C11.3656 16.8457 10.8643 17.0531 10.3296 17.0531V17.0531Z" fill="white"/>
</svg>
