<svg width="16" height="15" viewBox="0 0 16 15" fill="none" xmlns="http://www.w3.org/2000/svg">
<path d="M1.93019 14.4027C1.62632 14.4027 1.3316 14.3539 1.05357 14.2577L0.42041 14.0386L0.906923 13.5779C1.55086 12.9681 1.71337 12.2648 1.72395 11.738C0.610988 10.5041 8.64472e-09 8.96459 8.64472e-09 7.38566C-0.000203383 3.51654 3.58864 0.368652 7.9998 0.368652C12.411 0.368652 16 3.51654 16 7.38566C16 11.2546 12.411 14.4023 7.9998 14.4023C6.6865 14.4023 5.39089 14.1177 4.23624 13.5771C3.80118 13.8852 2.92233 14.4027 1.93019 14.4027Z" fill="#54D6FF"/>
<path d="M4.87891 10.0469H7.09635" stroke="#FEFEFE" stroke-width="0.970132" stroke-linecap="round"/>
<path d="M5 7.36865H12.5393" stroke="#FEFEFE" stroke-width="0.970132" stroke-linecap="round"/>
<path d="M4.87891 4.72461H9.31379" stroke="#FEFEFE" stroke-width="0.970132" stroke-linecap="round"/>
</svg>
