<svg width="15" height="15" viewBox="0 0 15 15" fill="none" xmlns="http://www.w3.org/2000/svg">
<path d="M7.5 0C3.3525 0 0 3.3525 0 7.5C0 11.6475 3.3525 15 7.5 15C11.6475 15 15 11.6475 15 7.5C15 3.3525 11.6475 0 7.5 0ZM10.7212 9.66375C11.0133 9.95577 11.0133 10.4292 10.7213 10.7213C10.4292 11.0133 9.95577 11.0133 9.66375 10.7213L8.03033 9.08783C7.73744 8.79494 7.26256 8.79494 6.96967 9.08783L5.33625 10.7212C5.04423 11.0133 4.57077 11.0133 4.27875 10.7213C3.98673 10.4292 3.98673 9.95577 4.27875 9.66375L5.91217 8.03033C6.20506 7.73744 6.20506 7.26256 5.91217 6.96967L4.27875 5.33625C3.98673 5.04423 3.98673 4.57077 4.27875 4.27875C4.57077 3.98673 5.04423 3.98673 5.33625 4.27875L6.96967 5.91217C7.26256 6.20506 7.73744 6.20506 8.03033 5.91217L9.66375 4.27875C9.95577 3.98673 10.4292 3.98673 10.7213 4.27875C11.0133 4.57077 11.0133 5.04423 10.7213 5.33625L9.08783 6.96967C8.79494 7.26256 8.79494 7.73744 9.08783 8.03033L10.7212 9.66375Z" fill="#FF9898"/>
</svg>
