<svg width="14" height="16" viewBox="0 0 14 16" fill="none" xmlns="http://www.w3.org/2000/svg">
<path d="M11.4437 2.90246C11.2923 2.28648 10.8403 1.80548 10.2347 1.61643C9.62613 1.42611 8.98288 1.56496 8.50879 1.98542L7.75488 2.65178L11.3679 3.96675C11.4954 3.63175 11.5327 3.26442 11.4437 2.90246Z" fill="#F06451"/>
<path d="M7.28177 1.53855C7.18749 0.911334 6.7817 0.385058 6.19645 0.140634C5.61121 -0.104203 4.95586 -0.0259263 4.44283 0.348694C4.14224 0.568532 3.93489 0.879781 3.81738 1.21839L7.43082 2.53361L7.28177 1.53855Z" fill="#F06451"/>
<path d="M5.4043 7.45166V15.1121H6.2902V7.7741L5.4043 7.45166Z" fill="#F06451"/>
<path d="M0.529865 7.16895C0.285027 7.16895 0.0869141 7.36706 0.0869141 7.6119V13.7836C0.0869141 14.5164 0.682995 15.1125 1.41577 15.1125H4.51639V7.16895H0.529865Z" fill="#F06451"/>
<path d="M7.17285 8.09692V15.1125H10.2735C11.0062 15.1125 11.6023 14.5164 11.6023 13.7836V9.7091L7.17285 8.09692Z" fill="#F06451"/>
<path d="M6.91493 3.28879L5.70312 6.61841L6.53588 6.92149L7.74769 3.59187L6.91493 3.28879Z" fill="#F06451"/>
<path d="M12.3261 5.25816L8.5801 3.89478L7.36816 7.22442L11.9468 8.89088C11.9965 8.90903 12.048 8.91768 12.0981 8.91768C12.279 8.91768 12.4489 8.80608 12.5143 8.62612L13.1203 6.96116C13.3723 6.2696 13.0149 5.50917 12.3261 5.25816Z" fill="#F06451"/>
<path d="M2.33602 1.62232C1.64867 1.37093 0.885232 1.72326 0.632543 2.41651L0.0269578 4.08147C-0.056957 4.31116 0.0615804 4.56553 0.291689 4.64901L4.87014 6.31541L6.08213 2.98576L2.33602 1.62232Z" fill="#F06451"/>
</svg>
