<svg width="16" height="16" viewBox="0 0 16 16" fill="none" xmlns="http://www.w3.org/2000/svg">
<path d="M14.125 1.25H13.375V0H12.125V1.25H3.875V0H2.625V1.25H1.875C0.841064 1.25 0 2.09106 0 3.125V14.125C0 15.1589 0.841064 16 1.875 16H14.125C15.1589 16 16 15.1589 16 14.125V3.125C16 2.09106 15.1589 1.25 14.125 1.25ZM1.875 2.5H2.625V3.75H3.875V2.5H12.125V3.75H13.375V2.5H14.125C14.4696 2.5 14.75 2.7804 14.75 3.125V4.625H1.25V3.125C1.25 2.7804 1.5304 2.5 1.875 2.5ZM14.125 14.75H1.875C1.5304 14.75 1.25 14.4696 1.25 14.125V5.875H14.75V14.125C14.75 14.4696 14.4696 14.75 14.125 14.75ZM9.875 11.5625C9.875 12.598 10.7145 13.4375 11.75 13.4375C12.7855 13.4375 13.625 12.598 13.625 11.5625C13.625 10.527 12.7855 9.6875 11.75 9.6875C10.7145 9.6875 9.875 10.527 9.875 11.5625ZM11.125 11.5625C11.125 11.2173 11.4048 10.9375 11.75 10.9375C12.0952 10.9375 12.375 11.2173 12.375 11.5625C12.375 11.9077 12.0952 12.1875 11.75 12.1875C11.4048 12.1875 11.125 11.9077 11.125 11.5625Z" fill="#F06451"/>
</svg>
