<svg width="14" height="16" viewBox="0 0 14 16" fill="none" xmlns="http://www.w3.org/2000/svg">
<path d="M11.4435 2.90246C11.2921 2.28648 10.8401 1.80548 10.2345 1.61643C9.62588 1.42611 8.98263 1.56496 8.50854 1.98542L7.75464 2.65178L11.3676 3.96675C11.4951 3.63175 11.5324 3.26442 11.4435 2.90246Z" fill="#F06451"/>
<path d="M7.28152 1.53855C7.18725 0.911334 6.78146 0.385058 6.19621 0.140634C5.61096 -0.104203 4.95561 -0.0259263 4.44259 0.348694C4.14199 0.568532 3.93464 0.879781 3.81714 1.21839L7.43058 2.53361L7.28152 1.53855Z" fill="#F06451"/>
<path d="M5.40417 7.45166V15.1121H6.29008V7.7741L5.40417 7.45166Z" fill="#F06451"/>
<path d="M0.530353 7.16895C0.285516 7.16895 0.0874023 7.36706 0.0874023 7.6119V13.7836C0.0874023 14.5164 0.683484 15.1125 1.41625 15.1125H4.51688V7.16895H0.530353Z" fill="#F06451"/>
<path d="M7.17297 8.09692V15.1125H10.2736C11.0063 15.1125 11.6025 14.5164 11.6025 13.7836V9.7091L7.17297 8.09692Z" fill="#F06451"/>
<path d="M6.91517 3.28879L5.70337 6.61841L6.53613 6.92149L7.74793 3.59187L6.91517 3.28879Z" fill="#F06451"/>
<path d="M12.3257 5.25816L8.57974 3.89478L7.3678 7.22442L11.9464 8.89088C11.9962 8.90903 12.0476 8.91768 12.0978 8.91768C12.2786 8.91768 12.4486 8.80608 12.5139 8.62612L13.1199 6.96116C13.372 6.2696 13.0145 5.50917 12.3257 5.25816Z" fill="#F06451"/>
<path d="M2.33602 1.62232C1.64867 1.37093 0.885232 1.72326 0.632543 2.41651L0.0269578 4.08147C-0.056957 4.31116 0.0615804 4.56553 0.291689 4.64901L4.87014 6.31541L6.08213 2.98576L2.33602 1.62232Z" fill="#F06451"/>
</svg>
