<svg width="14" height="14" viewBox="0 0 14 14" fill="none" xmlns="http://www.w3.org/2000/svg">
<path fill-rule="evenodd" clip-rule="evenodd" d="M8.90617 12.0648C10.9754 11.2585 12.4416 9.24641 12.4416 6.89191C12.4416 3.8269 9.95692 1.34222 6.89191 1.34222C4.82426 1.34222 3.02071 2.47295 2.06589 4.14978C2.99935 3.28523 4.24858 2.75677 5.62124 2.75677C8.51165 2.75677 10.8548 5.09991 10.8548 7.99032C10.8548 9.63663 10.0946 11.1054 8.90617 12.0648ZM2.3522 12.0775C3.56475 13.1399 5.15314 13.7838 6.89191 13.7838C10.6982 13.7838 13.7838 10.6982 13.7838 6.89191C13.7838 3.08561 10.6982 0 6.89191 0C3.08561 0 0 3.08561 0 6.89191C0 8.27213 0.405725 9.55759 1.10441 10.6355C1.42948 11.1894 1.8535 11.6782 2.3522 12.0775ZM5.59504 11.8816C5.60377 11.8816 5.6125 11.8816 5.62124 11.8816C7.77036 11.8816 9.51257 10.1394 9.51257 7.99032C9.51257 5.8412 7.77036 4.09899 5.62124 4.09899C3.57064 4.09899 1.8905 5.68512 1.74077 7.69745C2.26518 7.09812 3.0357 6.7196 3.89464 6.7196C5.47469 6.7196 6.75558 8.00049 6.75558 9.58055C6.75558 10.5238 6.29912 11.3604 5.59504 11.8816ZM3.89464 11.0993C4.73341 11.0993 5.41336 10.4193 5.41336 9.58055C5.41336 8.74178 4.73341 8.06182 3.89464 8.06182C3.05587 8.06182 2.37591 8.74178 2.37591 9.58055C2.37591 10.4193 3.05587 11.0993 3.89464 11.0993Z" fill="#98BBFF"/>
</svg>
