<svg width="18" height="21" viewBox="0 0 18 21" fill="none" xmlns="http://www.w3.org/2000/svg">
<path d="M13.992 16.3333L1.17391 16.3333C0.525579 16.3333 1.21623e-06 15.811 1.24439e-06 15.1667C1.27256e-06 14.5223 0.525579 14 1.17391 14L13.992 14L11.3004 11.325C10.8419 10.8693 10.8419 10.1307 11.3004 9.67504C11.7588 9.21943 12.5021 9.21943 12.9605 9.67504L17.6562 14.3417C18.1146 14.7973 18.1146 15.536 17.6562 15.9916L12.9605 20.6583C12.5021 21.1139 11.7588 21.1139 11.3004 20.6583C10.8419 20.2027 10.8419 19.464 11.3004 19.0084L13.992 16.3333ZM4.00799 4.66667L16.8261 4.66667C17.4744 4.66667 18 5.189 18 5.83333C18 6.47766 17.4744 7 16.8261 7L4.00799 7L6.69965 9.67504C7.15809 10.1307 7.15809 10.8693 6.69965 11.325C6.24121 11.7806 5.49793 11.7806 5.03948 11.325L0.343832 6.65829C-0.114609 6.20268 -0.114609 5.46399 0.343832 5.00837L5.03948 0.341708C5.49793 -0.113903 6.24121 -0.113903 6.69965 0.341708C7.15809 0.79732 7.15809 1.53601 6.69965 1.99162L4.00799 4.66667Z" fill="#2E2E2E" />
</svg>
