<svg width="15" height="15" viewBox="0 0 15 15" fill="none" xmlns="http://www.w3.org/2000/svg">
<path fill-rule="evenodd" clip-rule="evenodd" d="M7.5 0C3.3525 0 0 3.3525 0 7.5C0 11.6475 3.3525 15 7.5 15C11.6475 15 15 11.6475 15 7.5C15 6.02591 14.5765 4.65224 13.8443 3.49383C12.6432 4.91261 11.104 6.75983 9.84797 8.2731C9.19929 9.05465 8.62686 9.74626 8.2166 10.2425C8.01148 10.4906 7.84693 10.6898 7.73368 10.827L7.60363 10.9845L7.59318 10.9972C7.5545 11.049 7.51082 11.0981 7.46215 11.1439C7.0097 11.5697 6.29772 11.5481 5.87188 11.0957L3.30578 8.3692C2.87995 7.91676 2.90152 7.20477 3.35397 6.77894C3.80641 6.35311 4.5184 6.37469 4.94423 6.82713L6.63536 8.62396C7.03047 8.14625 7.54386 7.52619 8.11664 6.8361C9.41546 5.27125 11.0224 3.34284 12.2478 1.8975C12.2828 1.85628 12.3201 1.8182 12.3593 1.78329C11.0512 0.670717 9.35512 0 7.5 0Z" fill="#7FCE82"/>
</svg>
