<svg width="22" height="22" viewBox="0 0 22 22" fill="none" xmlns="http://www.w3.org/2000/svg">
<path fill-rule="evenodd" clip-rule="evenodd" d="M11 0C4.92456 0 0 4.92456 0 11C0 17.0754 4.92456 22 11 22C17.0748 22 22 17.0748 22 11C22 8.65034 21.2633 6.47283 20.0084 4.68575C19.9843 4.72101 19.9582 4.75537 19.93 4.78865C18.1666 6.86855 15.8486 9.65007 13.9696 11.914C13.0305 13.0455 12.2017 14.0467 11.6078 14.7651C11.3108 15.1243 11.0726 15.4127 10.9086 15.6114L10.7203 15.8395L10.6716 15.8986L10.6682 15.9027C10.6456 15.9309 10.6217 15.9583 10.5963 15.9848C10.5089 16.0767 10.4099 16.1521 10.3036 16.2107C9.98452 16.3871 9.60474 16.4089 9.27154 16.2794C9.12433 16.2221 8.98622 16.1354 8.86646 16.0194C8.84861 16.0022 8.8314 15.9845 8.81481 15.9665L5.11194 12.0322C4.65033 11.5417 4.67372 10.7699 5.16418 10.3083C5.65464 9.84668 6.42645 9.87007 6.88806 10.3605L9.65452 13.2999C9.6786 13.2708 9.7031 13.2411 9.72802 13.211C10.3227 12.4917 11.1524 11.4892 12.0928 10.3563C13.9726 8.09144 16.2974 5.30162 18.0696 3.21135C18.1793 3.08193 18.3103 2.98109 18.4529 2.90961C16.4931 1.10325 13.8753 0 11 0Z" fill="#2E2E2E"/>
</svg>
