<svg width="20" height="20" viewBox="0 0 20 20" fill="none" xmlns="http://www.w3.org/2000/svg">
<path d="M4.6738 3.65457L12.6468 1.47826L12.2246 0.624808C11.9484 0.0700636 11.2746 -0.159021 10.7198 0.117228L3.58228 3.65457H4.6738Z" fill="white"/>
<path d="M15.1218 1.54114C15.023 1.54114 14.9242 1.55461 14.8254 1.58156L12.9523 2.09364L7.23187 3.65456H13.7249H16.5547L16.2044 2.36989C16.0696 1.86904 15.6159 1.54114 15.1218 1.54114Z" fill="white"/>
<path d="M17.7249 4.44067H17.4688H17.1207H16.7726H14.1157H4.35261H3.07243H1.99439H1.7945H1.12521C0.770354 4.44067 0.453678 4.60463 0.247052 4.86291C0.152723 4.98194 0.0808535 5.11894 0.0404267 5.26942C0.0157215 5.36375 0 5.46257 0 5.56364V5.69839V6.97857V18.0757C0 18.6956 0.503088 19.1987 1.12296 19.1987H17.7226C18.3425 19.1987 18.8456 18.6956 18.8456 18.0757V14.9426H12.1819C11.1286 14.9426 10.2729 14.0869 10.2729 13.0336V12.005V11.6568V11.3087V10.5361C10.2729 10.0196 10.4795 9.55019 10.8141 9.20656C11.1106 8.90109 11.5081 8.69446 11.9528 8.64281C12.027 8.63385 12.1033 8.62933 12.1797 8.62933H17.9113H18.2594H18.6075H18.8456V5.56364C18.8478 4.94376 18.3448 4.44067 17.7249 4.44067Z" fill="white"/>
<path d="M19.6339 9.70289C19.5216 9.59957 19.3891 9.52097 19.2408 9.46931C19.1263 9.43115 19.005 9.40869 18.877 9.40869H18.8478H18.8253H18.4772H17.2217H12.1819C11.562 9.40869 11.0589 9.91176 11.0589 10.5317V11.0909V11.439V11.7871V13.0314C11.0589 13.6512 11.562 14.1543 12.1819 14.1543H18.8478H18.877C19.005 14.1543 19.1263 14.1319 19.2408 14.0937C19.3891 14.0443 19.5216 13.9634 19.6339 13.8601C19.8584 13.6557 19.9999 13.3593 19.9999 13.0314V10.5317C19.9999 10.2037 19.8584 9.90724 19.6339 9.70289ZM14.5266 12.005C14.5266 12.3149 14.2751 12.5664 13.9651 12.5664H13.5923C13.2824 12.5664 13.0308 12.3149 13.0308 12.005V11.6321C13.0308 11.4525 13.1139 11.293 13.2464 11.1919C13.343 11.1178 13.4621 11.0707 13.5923 11.0707H13.6866H13.9651C14.2751 11.0707 14.5266 11.3222 14.5266 11.6321V12.005Z" fill="white"/>
</svg>
