<svg width="32" height="32" viewBox="0 0 32 32" fill="none" xmlns="http://www.w3.org/2000/svg">
<circle cx="16" cy="16" r="16" fill="#9C4CFF"/>
<path d="M15.9052 6.54688C14.7382 6.54688 13.792 10.7795 13.792 16.0007C13.792 21.2219 14.7382 25.4544 15.9052 25.4544C17.0721 25.4544 18.0184 21.2219 18.0184 16.0007C18.0184 10.7795 17.0721 6.54688 15.9052 6.54688ZM16.0511 24.9209C15.9176 25.0989 15.7842 24.9654 15.7842 24.9654C15.2468 24.3427 14.9781 23.1859 14.9781 23.1859C14.038 20.1607 14.2618 13.6654 14.2618 13.6654C14.7035 8.50879 15.5072 7.29065 15.7806 7.02021C15.8086 6.99261 15.8453 6.97574 15.8845 6.97258C15.9236 6.96941 15.9626 6.98015 15.9946 7.00291C16.3914 7.28407 16.7242 8.45993 16.7242 8.45993C17.7069 12.108 17.6179 15.5336 17.6179 15.5336C17.7069 18.5143 17.1255 21.8509 17.1255 21.8509C16.6779 24.3866 16.0511 24.9209 16.0511 24.9209Z" fill="white"/>
<path d="M24.1044 11.2961C23.5234 10.2836 19.3815 11.5693 14.8504 14.1675C10.3194 16.7656 7.12326 19.6929 7.70383 20.705C8.28441 21.7172 12.4267 20.4319 16.9577 17.8337C21.4888 15.2355 24.6849 12.3083 24.1044 11.2961ZM8.23987 20.5662C8.01743 20.5381 8.06767 20.3553 8.06767 20.3553C8.34054 19.5794 9.20885 18.7706 9.20885 18.7706C11.366 16.4497 17.1118 13.4116 17.1118 13.4116C21.8039 11.2285 23.2614 11.3206 23.6311 11.4224C23.6691 11.433 23.702 11.4567 23.7242 11.4893C23.7464 11.5218 23.7563 11.5612 23.7522 11.6004C23.7077 12.0847 22.8513 12.9582 22.8513 12.9582C20.1779 15.6271 17.162 17.2549 17.162 17.2549C14.6208 18.816 11.4373 19.9713 11.4373 19.9713C9.01495 20.8442 8.23995 20.5662 8.23995 20.5662H8.23987Z" fill="white"/>
<path d="M24.0837 20.739C24.6692 19.7291 21.4811 16.7884 16.966 14.1707C12.4508 11.5529 8.30948 10.2513 7.72449 11.263C7.1395 12.2746 10.3271 15.2135 14.8448 17.8313C19.3625 20.449 23.4987 21.7507 24.0837 20.739ZM8.11246 11.6532C8.02598 11.4481 8.20855 11.3987 8.20855 11.3987C9.01684 11.2461 10.1522 11.5939 10.1522 11.5939C13.241 12.2973 18.7488 15.7474 18.7488 15.7474C22.9895 18.7148 23.6398 20.0218 23.7373 20.3929C23.7472 20.4309 23.7434 20.4712 23.7264 20.5067C23.7095 20.5422 23.6806 20.5706 23.6448 20.5868C23.2026 20.7893 22.0182 20.4876 22.0182 20.4876C18.368 19.5089 15.4487 17.7156 15.4487 17.7156C12.8256 16.3009 10.232 14.1241 10.232 14.1241C8.26113 12.4647 8.11307 11.6554 8.11307 11.6554L8.11246 11.6532Z" fill="white"/>
<path d="M15.8827 17.0906C16.497 17.0906 16.9949 16.5927 16.9949 15.9784C16.9949 15.3642 16.497 14.8662 15.8827 14.8662C15.2685 14.8662 14.7705 15.3642 14.7705 15.9784C14.7705 16.5927 15.2685 17.0906 15.8827 17.0906Z" fill="white"/>
<path d="M20.4425 12.3757C20.7987 12.3757 21.0875 12.0769 21.0875 11.7083C21.0875 11.3398 20.7987 11.041 20.4425 11.041C20.0862 11.041 19.7974 11.3398 19.7974 11.7083C19.7974 12.0769 20.0862 12.3757 20.4425 12.3757Z" fill="white"/>
<path d="M9.85505 14.6432C10.2113 14.6432 10.5001 14.3445 10.5001 13.9759C10.5001 13.6074 10.2113 13.3086 9.85505 13.3086C9.49878 13.3086 9.20996 13.6074 9.20996 13.9759C9.20996 14.3445 9.49878 14.6432 9.85505 14.6432Z" fill="white"/>
<path d="M14.5694 22.8307C14.9257 22.8307 15.2145 22.532 15.2145 22.1634C15.2145 21.7949 14.9257 21.4961 14.5694 21.4961C14.2131 21.4961 13.9243 21.7949 13.9243 22.1634C13.9243 22.532 14.2131 22.8307 14.5694 22.8307Z" fill="white"/>
</svg>
