<svg width="26" height="26" viewBox="0 0 26 26" fill="none" xmlns="http://www.w3.org/2000/svg">
<circle cx="13" cy="13" r="13" fill="#3D467F"/>
<path fill-rule="evenodd" clip-rule="evenodd" d="M13.7564 6.82355L14.1459 7.50284L6.00059 18.223C5.99542 18.0889 6.02424 17.9503 6.09369 17.8188L12.4178 6.89337C12.7154 6.39329 13.4208 6.37001 13.7564 6.82355Z" fill="white"/>
<path fill-rule="evenodd" clip-rule="evenodd" d="M14.8631 8.72461L6.01465 18.3435C6.023 18.3868 6.03487 18.4292 6.05002 18.4704L15.8171 10.3726L14.8631 8.72461Z" fill="white"/>
<path fill-rule="evenodd" clip-rule="evenodd" d="M16.5557 11.6497L6.08594 18.5547C6.10294 18.5886 6.12227 18.6212 6.14377 18.6524L17.4912 13.2655L16.5557 11.6497Z" fill="white"/>
<path fill-rule="evenodd" clip-rule="evenodd" d="M6.29612 18.8182L19.1649 16.16L18.1823 14.4604L6.19727 18.7212C6.22729 18.7562 6.26033 18.7887 6.29612 18.8182Z" fill="white"/>
<path fill-rule="evenodd" clip-rule="evenodd" d="M20.137 17.8396L19.8556 17.355L6.39648 18.8891C6.51439 18.9589 6.65354 19 6.80691 19H19.4127C20.0147 19 20.3975 18.3679 20.137 17.8396Z" fill="white"/>
</svg>
