<svg width="26" height="26" viewBox="0 0 26 26" fill="none" xmlns="http://www.w3.org/2000/svg">
<circle cx="13" cy="13" r="13" fill="#EAEAEA"/>
<path d="M12.9034 15.4206C13.3509 15.4206 13.6749 15.0657 13.7366 14.6646L13.7829 14.3869C15.4646 14.0474 16.8223 13.2451 16.8223 11.2857V11.2549C16.8223 9.20286 15.3103 8.06114 13.0886 8.06114C11.7309 8.06114 10.6971 8.49314 9.87943 9.172C9.60171 9.40343 9.47829 9.712 9.47829 10.0051C9.47829 10.5914 9.972 11.0851 10.5583 11.0851C10.8206 11.0851 11.0674 10.9771 11.2526 10.8383C11.808 10.4217 12.3789 10.2211 13.0423 10.2211C13.9371 10.2211 14.4617 10.6223 14.4617 11.3166V11.3474C14.4617 12.1034 13.8446 12.52 12.5023 12.6897C12.0086 12.7514 11.7154 13.1063 11.7926 13.6154L11.9469 14.6646C12.0086 15.0811 12.3326 15.4206 12.78 15.4206H12.9034ZM11.4377 17.7503V17.7811C11.4377 18.5217 12.0086 19.0926 12.78 19.0926C13.5514 19.0926 14.1223 18.5217 14.1223 17.7811V17.7503C14.1223 17.0097 13.5514 16.4389 12.78 16.4389C12.0086 16.4389 11.4377 17.0097 11.4377 17.7503Z" fill="black"/>
</svg>
