<svg width="8" height="8" viewBox="0 0 8 8" fill="none" xmlns="http://www.w3.org/2000/svg">
<path d="M6.59349 1.87488C6.07657 1.87488 5.65601 2.29542 5.65601 2.81236C5.65601 3.3293 6.07657 3.74985 6.59349 3.74985C7.11043 3.74985 7.53097 3.32928 7.53097 2.81236C7.53097 2.29544 7.11043 1.87488 6.59349 1.87488Z" fill="#98BBFF"/>
<path d="M5.18748 0C4.67056 0 4.25 0.420562 4.25 0.937484C4.25 1.45442 4.67056 1.87497 5.18748 1.87497C5.70441 1.87497 6.12497 1.45441 6.12497 0.937484C6.12498 0.420547 5.70442 0 5.18748 0Z" fill="#98BBFF"/>
<path d="M3.78123 1.87488C3.2643 1.87488 2.84375 2.29544 2.84375 2.81236C2.84375 3.3293 3.26431 3.74985 3.78123 3.74985C4.29816 3.74985 4.71872 3.32928 4.71872 2.81236C4.71872 2.29544 4.29816 1.87488 3.78123 1.87488Z" fill="#98BBFF"/>
<path d="M7.75688 4.39057C7.46683 4.13903 7.03623 4.16998 6.78222 4.44267L6.09338 5.18214C6.00434 4.89589 5.73695 4.68745 5.42181 4.68745H4.6612C4.55327 4.68745 4.50558 4.62834 4.3963 4.53215C3.78423 3.99353 2.86425 3.98879 2.24639 4.51725C2.11897 4.33684 1.90902 4.2187 1.67188 4.2187H0.234375C0.104937 4.2187 0 4.32364 0 4.45307V7.26554C0 7.39498 0.104937 7.49992 0.234375 7.49992H1.67186C1.86994 7.49992 2.04902 7.41747 2.17694 7.28522C2.50072 7.42595 2.85252 7.49992 3.20603 7.49992H5.42181C5.93547 7.49992 6.42609 7.25459 6.7343 6.84368L7.8595 5.34342L7.85952 5.34339C8.08066 5.04853 8.03648 4.63306 7.75688 4.39057ZM7.48448 5.0622L7.48447 5.06222L6.35928 6.56245C6.13914 6.85597 5.78867 7.0312 5.4218 7.0312H3.20602C2.91969 7.0312 2.63472 6.97195 2.37205 6.85906C2.37386 6.83853 2.37495 6.81781 2.37495 6.79682V5.02779L2.53828 4.88408C2.97964 4.49567 3.64527 4.4957 4.08661 4.88408C4.20422 4.98758 4.36202 5.15623 4.66119 5.15623H5.42181C5.55105 5.15623 5.65619 5.26137 5.65619 5.39061C5.65619 5.51984 5.55105 5.62498 5.42181 5.62498H4.22484C3.9568 5.62498 3.71581 5.77392 3.59595 6.01365C3.53806 6.12943 3.585 6.27022 3.70077 6.32811C3.73442 6.34493 3.77017 6.3529 3.80539 6.3529C3.89136 6.3529 3.97414 6.30542 4.0152 6.22329C4.05516 6.14339 4.13548 6.09373 4.22484 6.09373H5.57889C5.77331 6.09373 5.96084 6.01214 6.09338 5.86987L7.12517 4.76223L7.12522 4.76218C7.21477 4.66604 7.36247 4.66334 7.45597 4.75C7.54444 4.83201 7.55603 4.96682 7.48448 5.0622Z" fill="#98BBFF"/>
</svg>
