<svg width="8" height="9" viewBox="0 0 8 9" fill="none" xmlns="http://www.w3.org/2000/svg">
<path d="M5.96105 2.80115C5.47622 2.80115 5.08179 3.19512 5.08179 3.67937C5.08179 4.16362 5.47622 4.55761 5.96105 4.55761C6.44532 4.55761 6.83928 4.16362 6.83928 3.67937C6.83928 3.19512 6.4453 2.80115 5.96105 2.80115Z" fill="#98BBFF"/>
<path d="M1.50028 1.76219C1.52826 1.93204 1.59653 2.09694 1.69771 2.23907C1.71794 2.26751 1.71474 2.30639 1.69012 2.33112L1.43892 2.58342L1.62762 2.77209L1.87861 2.52111C1.90325 2.49644 1.94206 2.49313 1.97054 2.51325C2.11198 2.61311 2.27757 2.68147 2.44935 2.71095C2.48372 2.71684 2.50885 2.74664 2.50885 2.78151V3.13764H2.77573V2.78151C2.77573 2.74661 2.80089 2.7168 2.8353 2.71093C3.0091 2.68133 3.17018 2.61479 3.31407 2.51325C3.3425 2.49317 3.38121 2.49646 3.40588 2.52102L3.65799 2.77209L3.84574 2.58354L3.59443 2.33114C3.5697 2.3063 3.56658 2.26722 3.58708 2.23878C3.6873 2.09968 3.75596 1.93472 3.78564 1.76176C3.79154 1.72739 3.82133 1.70228 3.8562 1.70228H4.21105V1.43541H3.8562C3.82129 1.43541 3.79147 1.41025 3.78562 1.37584C3.75589 1.20134 3.68903 1.04037 3.58692 0.897409C3.5666 0.868967 3.56979 0.830017 3.59443 0.80528L3.84574 0.552933L3.65808 0.364434L3.40597 0.616584C3.38123 0.641339 3.34221 0.644561 3.31373 0.624227C3.17073 0.52211 3.00976 0.455256 2.8353 0.425525C2.80089 0.419672 2.77573 0.389851 2.77573 0.354947V0H2.50885V0.354875C2.50885 0.389744 2.48372 0.419546 2.44935 0.425435C2.27691 0.455005 2.11144 0.523721 1.97086 0.624155C1.94233 0.644561 1.90324 0.641249 1.8785 0.616405L1.62751 0.364362L1.43892 0.552969L1.69012 0.805209C1.71468 0.829856 1.71794 0.868591 1.69789 0.897015C1.59481 1.04306 1.52833 1.20397 1.5003 1.37531C1.49463 1.40994 1.46472 1.43534 1.42963 1.43534H1.07349V1.70221H1.42963C1.46468 1.70222 1.49457 1.72761 1.50028 1.76219ZM2.6424 0.758294C3.08926 0.758294 3.45279 1.12183 3.45279 1.56868C3.45279 2.01498 3.08924 2.37806 2.6424 2.37806C2.19612 2.37806 1.83305 2.01498 1.83305 1.56868C1.83305 1.12182 2.19612 0.758294 2.6424 0.758294Z" fill="#98BBFF"/>
<path d="M4.0556 5.80294C4.01258 5.54635 3.90964 5.29833 3.75793 5.08569C3.73759 5.05721 3.74083 5.01821 3.76557 4.99349L4.15927 4.59979L3.83386 4.27438L3.44018 4.66806C3.41542 4.69279 3.37642 4.69603 3.34796 4.67572C3.13409 4.52314 2.89268 4.42296 2.63042 4.37798C2.59605 4.37209 2.57092 4.34229 2.57092 4.30742V3.75098H2.11067V4.30742C2.11067 4.34227 2.08558 4.37205 2.05123 4.37796C1.78945 4.42308 1.54838 4.52325 1.33471 4.67572C1.30629 4.69602 1.26734 4.69285 1.24258 4.66813L0.84763 4.2743L0.522397 4.59972L0.917045 4.99342C0.941835 5.01815 0.945093 5.05719 0.924759 5.08569C0.772954 5.29844 0.670085 5.54644 0.62727 5.80289C0.621506 5.83741 0.59165 5.8627 0.556656 5.8627H0V6.32295H0.556656C0.59165 6.32295 0.621524 6.34825 0.62727 6.38278C0.670014 6.63881 0.77256 6.88695 0.923829 7.10035C0.944019 7.12883 0.940726 7.1677 0.916042 7.19239L0.522325 7.5861L0.847595 7.91139L1.24257 7.51755C1.26725 7.49288 1.30611 7.48968 1.33451 7.50982C1.5482 7.66128 1.79591 7.76383 2.05085 7.80636C2.08536 7.8121 2.11067 7.84198 2.11067 7.87697V8.43363H2.57092V7.87697C2.57092 7.84196 2.59625 7.81207 2.6308 7.80634C2.88987 7.76333 3.13121 7.66356 3.34814 7.50982C3.3766 7.48964 3.41547 7.49294 3.44018 7.51762L3.83387 7.91132L4.15925 7.58609L3.76557 7.19239C3.74083 7.16765 3.73759 7.12865 3.75793 7.10019C3.90807 6.8898 4.01103 6.6416 4.05567 6.38242C4.06157 6.34807 4.09136 6.32297 4.12621 6.32297H4.68265V5.86272H4.12621C4.09123 5.8627 4.06139 5.83743 4.0556 5.80294ZM2.34072 7.24993C1.70274 7.24993 1.18373 6.7309 1.18373 6.09293C1.18373 5.45495 1.70276 4.93592 2.34072 4.93592C2.97939 4.93592 3.49898 5.45495 3.49898 6.09293C3.49898 6.7309 2.97937 7.24993 2.34072 7.24993Z" fill="#98BBFF"/>
<path d="M7.45188 3.42711C7.41465 3.20283 7.32762 2.99319 7.19321 2.80399C7.17297 2.77552 7.17626 2.7366 7.20096 2.7119L7.53919 2.37367L7.2669 2.10124L6.92851 2.43965C6.90385 2.46437 6.86492 2.46764 6.83642 2.4474C6.64737 2.3131 6.43771 2.226 6.21323 2.1885C6.17872 2.18274 6.15343 2.15288 6.15343 2.11789V1.64026H5.76866V2.11789C5.76866 2.15286 5.74339 2.18274 5.70888 2.1885C5.4866 2.22566 5.27073 2.31519 5.08463 2.4474C5.05617 2.46766 5.01726 2.46437 4.99254 2.43965L4.65415 2.10124L4.38186 2.37367L4.72009 2.7119C4.74479 2.7366 4.74807 2.77552 4.72784 2.80399C4.5946 2.99156 4.50791 3.20122 4.47018 3.42715C4.46443 3.46168 4.43456 3.48697 4.39957 3.48697H3.9209V3.87175H4.39957C4.43456 3.87175 4.46443 3.89704 4.47018 3.93157C4.5075 4.15512 4.5966 4.37106 4.72786 4.55605C4.74807 4.58453 4.74478 4.62342 4.72009 4.64811L4.38194 4.98626L4.65412 5.25766L4.99259 4.92025C5.01733 4.89562 5.05617 4.8924 5.08462 4.91259C5.26925 5.04374 5.4851 5.13284 5.70884 5.17022C5.74335 5.17598 5.76865 5.20584 5.76865 5.24083V5.7195H6.15341V5.24083C6.15341 5.20584 6.1787 5.17596 6.21323 5.17022C6.4392 5.1325 6.64885 5.04583 6.8364 4.91259C6.86483 4.8924 6.90369 4.89562 6.92843 4.92025L7.2669 5.25766L7.53908 4.98626L7.20093 4.64811C7.17623 4.62342 7.17295 4.58453 7.19316 4.55605C7.324 4.37167 7.41348 4.15562 7.45191 3.93127C7.4578 3.8969 7.48761 3.87177 7.52247 3.87177H8.0001V3.48699H7.52251C7.4875 3.48699 7.45761 3.46166 7.45188 3.42711ZM5.96105 4.7008C5.39727 4.7008 4.93859 4.24258 4.93859 3.67937C4.93859 3.11616 5.39727 2.65795 5.96105 2.65795C6.52427 2.65795 6.98248 3.11616 6.98248 3.67937C6.98248 4.24258 6.52425 4.7008 5.96105 4.7008Z" fill="#98BBFF"/>
<path d="M2.3407 5.0791C1.78169 5.0791 1.3269 5.53389 1.3269 6.09291C1.3269 6.65193 1.78169 7.10672 2.3407 7.10672C2.90041 7.10672 3.35576 6.65193 3.35576 6.09291C3.35576 5.53389 2.9004 5.0791 2.3407 5.0791Z" fill="#98BBFF"/>
<path d="M2.64247 2.23486C3.01037 2.23486 3.30967 1.93601 3.30967 1.56868C3.30967 1.20079 3.01035 0.901489 2.64247 0.901489C2.27515 0.901489 1.97632 1.2008 1.97632 1.56868C1.97632 1.93601 2.27515 2.23486 2.64247 2.23486Z" fill="#98BBFF"/>
</svg>
