<svg width="8" height="7" viewBox="0 0 8 7" fill="none" xmlns="http://www.w3.org/2000/svg">
<path d="M6.22222 1.52685V6.40994C6.22222 6.65692 6.02324 6.85714 5.77778 6.85714C5.53232 6.85714 5.33333 6.65692 5.33333 6.40994V1.52685L4.31427 2.55225C4.1407 2.72689 3.8593 2.72689 3.68573 2.55225C3.51216 2.3776 3.51216 2.09445 3.68573 1.9198L5.46351 0.130983C5.63707 -0.0436611 5.91848 -0.0436611 6.09205 0.130983L7.86982 1.9198C8.04339 2.09445 8.04339 2.3776 7.86982 2.55225C7.69626 2.72689 7.41485 2.72689 7.24128 2.55225L6.22222 1.52685ZM1.77778 5.33029V0.447205C1.77778 0.20022 1.97676 4.88684e-08 2.22222 4.88684e-08C2.46768 4.88684e-08 2.66667 0.20022 2.66667 0.447205V5.33029L3.68573 4.3049C3.8593 4.13025 4.1407 4.13025 4.31427 4.3049C4.48784 4.47954 4.48784 4.76269 4.31427 4.93734L2.53649 6.72616C2.36293 6.9008 2.08152 6.9008 1.90795 6.72616L0.130175 4.93734C-0.0433916 4.76269 -0.0433916 4.47954 0.130175 4.3049C0.303741 4.13025 0.585148 4.13025 0.758714 4.3049L1.77778 5.33029Z" fill="#98BBFF"/>
</svg>
