<svg width="10" height="8" viewBox="0 0 10 8" fill="none" xmlns="http://www.w3.org/2000/svg">
<path d="M2.37494 7.53125C2.35486 7.53125 2.33453 7.52734 2.31519 7.51935C2.25684 7.49518 2.21875 7.43817 2.21875 7.375V6.4375H1.90625C1.40656 6.4375 1 6.03094 1 5.53125V1.90625C1 1.40656 1.40656 1 1.90625 1H8.09375C8.59344 1 9 1.40656 9 1.90625V5.53125C9 6.03094 8.59344 6.4375 8.09375 6.4375H7.75196C7.66572 6.4375 7.59571 6.36755 7.59571 6.28125C7.59571 6.19495 7.66572 6.125 7.75196 6.125H8.09375C8.42114 6.125 8.6875 5.85864 8.6875 5.53125V1.90625C8.6875 1.57886 8.42114 1.3125 8.09375 1.3125H1.90625C1.57886 1.3125 1.3125 1.57886 1.3125 1.90625V5.53125C1.3125 5.85864 1.57886 6.125 1.90625 6.125H2.375C2.4613 6.125 2.53125 6.19495 2.53125 6.28125V6.9978L3.35828 6.17078C3.38757 6.14148 3.42731 6.125 3.46875 6.125H5.74986C5.83616 6.125 5.90611 6.19495 5.90611 6.28125C5.90611 6.36755 5.83616 6.4375 5.74986 6.4375H3.53351L2.48547 7.48547C2.45557 7.51538 2.41565 7.53125 2.37494 7.53125Z" fill="#98BBFF" stroke="#98BBFF" stroke-width="0.5"/>
<path d="M7.31342 4.93567C7.27197 4.93567 7.23224 4.91919 7.20294 4.88989L6.78308 4.47003L6.36328 4.88989C6.30225 4.95087 6.20331 4.95087 6.14227 4.88989L5.61194 4.35956C5.58264 4.33026 5.56616 4.29053 5.56616 4.24908C5.56616 4.20764 5.58264 4.16791 5.61194 4.13861L6.0318 3.71875L5.61194 3.29889C5.58264 3.26959 5.56616 3.22986 5.56616 3.18842C5.56616 3.14697 5.58264 3.10724 5.61194 3.07794L6.14227 2.54761C6.20331 2.48657 6.30225 2.48657 6.36328 2.54761L6.78308 2.96747L7.20294 2.54761C7.23224 2.51831 7.27197 2.50183 7.31342 2.50183C7.35486 2.50183 7.39459 2.51831 7.42395 2.54761L7.95422 3.07794C8.01526 3.13898 8.01526 3.23785 7.95422 3.29889L7.53436 3.71875L7.95422 4.13861C8.01526 4.19958 8.01526 4.29852 7.95422 4.35956L7.42395 4.88989C7.39465 4.91919 7.35486 4.93567 7.31342 4.93567Z" fill="#98BBFF"/>
<path d="M3.11035 4.88572C3.07031 4.88572 3.03033 4.87046 2.99982 4.83994L2.76727 4.6074C2.76508 4.60538 2.76288 4.60337 2.76074 4.60123L2.04578 3.88621C1.98474 3.82523 1.98474 3.7263 2.04578 3.66526L2.57605 3.13493C2.63708 3.07389 2.73602 3.07389 2.79706 3.13493L3.11017 3.44804L3.96057 2.59763C4.02161 2.53666 4.12048 2.5366 4.18152 2.59763L4.71185 3.12797C4.74115 3.15726 4.75763 3.197 4.75763 3.23844C4.75763 3.27988 4.74115 3.31962 4.71185 3.34892L3.22083 4.83994C3.19031 4.87046 3.15033 4.88572 3.11035 4.88572Z" fill="#98BBFF"/>
<path d="M6.7832 6.43701C6.74207 6.43701 6.70178 6.42047 6.67255 6.39142C6.64349 6.36218 6.62695 6.32184 6.62695 6.28076C6.62695 6.23969 6.64349 6.19952 6.67255 6.17029C6.70178 6.14124 6.74207 6.12451 6.7832 6.12451C6.82428 6.12451 6.86456 6.14124 6.89362 6.17029C6.92273 6.19952 6.93945 6.23969 6.93945 6.28076C6.93945 6.32184 6.92273 6.36218 6.89362 6.39142C6.86456 6.42047 6.82428 6.43701 6.7832 6.43701Z" fill="#98BBFF" stroke="#98BBFF" stroke-width="0.295406"/>
</svg>
