<svg width="8" height="10" viewBox="0 0 8 10" fill="none" xmlns="http://www.w3.org/2000/svg">
<path d="M6.27094 9.19137H1.89571C1.49384 9.19137 1.1665 8.893 1.1665 8.52597V5.42077C1.1665 5.05374 1.49384 4.75537 1.89571 4.75537H6.27094C6.67281 4.75537 7.00015 5.05374 7.00015 5.42077V8.52597C7.00015 8.893 6.67281 9.19137 6.27094 9.19137Z" fill="#98BBFF"/>
<path d="M6.27094 8.74777H1.89571C1.76183 8.74777 1.65264 8.6484 1.65264 8.52597V5.42077C1.65264 5.29834 1.76183 5.19897 1.89571 5.19897H6.27094C6.40482 5.19897 6.51401 5.29834 6.51401 5.42077M6.27094 9.19137H1.89571C1.49384 9.19137 1.1665 8.893 1.1665 8.52597V5.42077C1.1665 5.05374 1.49384 4.75537 1.89571 4.75537H6.27094C6.67281 4.75537 7.00015 5.05374 7.00015 5.42077V8.52597C7.00015 8.893 6.67281 9.19137 6.27094 9.19137Z" stroke="#98BBFF" stroke-width="0.5"/>
<path d="M2.3815 4.72109C2.24732 4.72109 2.13843 4.62172 2.13843 4.49929L2.13843 2.7744C2.13843 1.79579 3.01053 1 4.08298 1C5.15542 1 6.02752 1.79579 6.02752 2.7744C6.02752 2.89683 5.91863 2.9962 5.78445 2.9962C5.65028 2.9962 5.54139 2.89683 5.54139 2.7744C5.54139 2.04066 4.88707 1.4436 4.08298 1.4436C3.27888 1.4436 2.62456 2.04066 2.62456 2.7744V4.49929C2.62456 4.62172 2.51567 4.72109 2.3815 4.72109Z" fill="#98BBFF" stroke="#98BBFF" stroke-width="0.5"/>
</svg>
